ETBookOT-Italic.ufo
<glyph name="quotedbl" format="1">
  <advance width="424"/>
  <unicode hex="0022"/>
  <outline>
    <contour>
      <point x="478" y="587" type="curve" smooth="yes"/>
      <point x="453" y="511"/>
      <point x="379" y="364"/>
      <point x="379" y="364" type="curve" smooth="yes"/>
      <point x="370" y="348"/>
      <point x="344" y="352"/>
      <point x="346" y="371" type="curve" smooth="yes"/>
      <point x="363" y="540"/>
      <point x="360" y="504"/>
      <point x="365" y="563" type="curve" smooth="yes"/>
      <point x="371" y="622"/>
      <point x="400" y="662"/>
      <point x="444" y="662" type="curve" smooth="yes"/>
      <point x="494" y="662"/>
      <point x="488" y="619"/>
    </contour>
    <contour>
      <point x="309" y="621" type="curve" smooth="yes"/>
      <point x="309" y="584"/>
      <point x="200" y="364"/>
      <point x="200" y="364" type="curve" smooth="yes"/>
      <point x="190" y="348"/>
      <point x="169" y="354"/>
      <point x="169" y="370" type="curve" smooth="yes"/>
      <point x="183" y="515" type="line" smooth="yes"/>
      <point x="194" y="625"/>
      <point x="211" y="662"/>
      <point x="266" y="662" type="curve" smooth="yes"/>
      <point x="291" y="662"/>
      <point x="309" y="646"/>
    </contour>
  </outline>
</glyph>
<glyph name="numbersign" format="1">
  <advance width="680"/>
  <unicode hex="0023"/>
  <outline>
    <contour>
      <point x="640" y="481" type="curve"/>
      <point x="636" y="442" type="line" smooth="yes"/>
      <point x="633" y="430"/>
      <point x="623" y="427"/>
      <point x="617" y="427" type="curve" smooth="yes"/>
      <point x="548" y="427" type="line" smooth="yes"/>
      <point x="532" y="425"/>
      <point x="526" y="419"/>
      <point x="518" y="402" type="curve"/>
      <point x="490" y="265" type="line" smooth="yes"/>
      <point x="485" y="241"/>
      <point x="505" y="244"/>
      <point x="507" y="244" type="curve" smooth="yes"/>
      <point x="534" y="242"/>
      <point x="589" y="244"/>
      <point x="616" y="246" type="curve" smooth="yes"/>
      <point x="629" y="243"/>
      <point x="637" y="233"/>
      <point x="634" y="215" type="curve"/>
      <point x="635" y="201" type="line" smooth="yes"/>
      <point x="636" y="182"/>
      <point x="611" y="182"/>
      <point x="611" y="182" type="curve"/>
      <point x="582" y="180"/>
      <point x="524" y="179"/>
      <point x="495" y="180" type="curve" smooth="yes"/>
      <point x="487" y="180"/>
      <point x="475" y="169"/>
      <point x="466" y="144" type="curve" smooth="yes"/>
      <point x="437" y="0" type="line" smooth="yes"/>
      <point x="433" y="-20"/>
      <point x="424" y="-26"/>
      <point x="414" y="-26" type="curve" smooth="yes"/>
      <point x="389" y="-25" type="line" smooth="yes"/>
      <point x="385" y="-23"/>
      <point x="369" y="-18"/>
      <point x="373" y="-1" type="curve" smooth="yes"/>
      <point x="403" y="144" type="line" smooth="yes"/>
      <point x="407" y="164"/>
      <point x="413" y="178"/>
      <point x="401" y="180" type="curve" smooth="yes"/>
      <point x="352" y="176"/>
      <point x="262" y="177"/>
      <point x="219" y="180" type="curve" smooth="yes"/>
      <point x="212" y="179"/>
      <point x="205" y="175"/>
      <point x="202" y="158" type="curve" smooth="yes"/>
      <point x="169" y="-5" type="line" smooth="yes"/>
      <point x="166" y="-21"/>
      <point x="158" y="-28"/>
      <point x="150" y="-27" type="curve" smooth="yes"/>
      <point x="122" y="-25" type="line" smooth="yes"/>
      <point x="109" y="-22"/>
      <point x="104" y="-13"/>
      <point x="104" y="-8" type="curve" smooth="yes"/>
      <point x="140" y="161" type="line" smooth="yes"/>
      <point x="139" y="173"/>
      <point x="130" y="180"/>
      <point x="121" y="180" type="curve" smooth="yes"/>
      <point x="70" y="180" type="line" smooth="yes"/>
      <point x="53" y="182"/>
      <point x="46" y="189"/>
      <point x="44" y="194" type="curve" smooth="yes"/>
      <point x="44" y="227" type="line" smooth="yes"/>
      <point x="44" y="233"/>
      <point x="48" y="245"/>
      <point x="69" y="245" type="curve" smooth="yes"/>
      <point x="134" y="244" type="line" smooth="yes"/>
      <point x="146" y="244"/>
      <point x="157" y="252"/>
      <point x="160" y="260" type="curve" smooth="yes"/>
      <point x="190" y="406" type="line" smooth="yes"/>
      <point x="193" y="419"/>
      <point x="187" y="424"/>
      <point x="170" y="426" type="curve" smooth="yes"/>
      <point x="67" y="427" type="line" smooth="yes"/>
      <point x="56" y="429"/>
      <point x="45" y="436"/>
      <point x="44" y="446" type="curve" smooth="yes"/>
      <point x="44" y="478" type="line"/>
      <point x="48" y="490"/>
      <point x="54" y="492"/>
      <point x="67" y="492" type="curve" smooth="yes"/>
      <point x="191" y="490" type="line" smooth="yes"/>
      <point x="208" y="490"/>
      <point x="212" y="511"/>
      <point x="212" y="511" type="curve"/>
      <point x="244" y="668" type="line" smooth="yes"/>
      <point x="249" y="691"/>
      <point x="248" y="700"/>
      <point x="269" y="696" type="curve"/>
      <point x="294" y="696" type="line" smooth="yes"/>
      <point x="316" y="693"/>
      <point x="306" y="683"/>
      <point x="307" y="670" type="curve" smooth="yes"/>
      <point x="274" y="512" type="line" smooth="yes"/>
      <point x="272" y="500"/>
      <point x="281" y="493"/>
      <point x="292" y="491" type="curve" smooth="yes"/>
      <point x="337" y="488"/>
      <point x="407" y="490"/>
      <point x="448" y="491" type="curve" smooth="yes"/>
      <point x="469" y="492"/>
      <point x="475" y="506"/>
      <point x="478" y="513" type="curve" smooth="yes"/>
      <point x="511" y="674" type="line" smooth="yes"/>
      <point x="511" y="682"/>
      <point x="513" y="698"/>
      <point x="528" y="696" type="curve" smooth="yes"/>
      <point x="560" y="699" type="line" smooth="yes"/>
      <point x="566" y="702"/>
      <point x="578" y="696"/>
      <point x="573" y="673" type="curve" smooth="yes"/>
      <point x="540" y="513" type="line" smooth="yes"/>
      <point x="537" y="503"/>
      <point x="540" y="491"/>
      <point x="555" y="491" type="curve" smooth="yes"/>
      <point x="624" y="492" type="line" smooth="yes"/>
      <point x="633" y="492"/>
      <point x="637" y="492"/>
    </contour>
    <contour>
      <point x="456" y="404" type="line" smooth="yes"/>
      <point x="457" y="419"/>
      <point x="460" y="428"/>
      <point x="446" y="427" type="curve" smooth="yes"/>
      <point x="399" y="425"/>
      <point x="315" y="424"/>
      <point x="276" y="427" type="curve"/>
      <point x="262" y="424"/>
      <point x="257" y="418"/>
      <point x="252" y="406" type="curve" smooth="yes"/>
      <point x="222" y="259" type="line" smooth="yes"/>
      <point x="221" y="253"/>
      <point x="228" y="246"/>
      <point x="241" y="245" type="curve" smooth="yes"/>
      <point x="281" y="243"/>
      <point x="351" y="243"/>
      <point x="405" y="245" type="curve" smooth="yes"/>
      <point x="418" y="247"/>
      <point x="423" y="254"/>
      <point x="427" y="264" type="curve" smooth="yes"/>
    </contour>
  </outline>
</glyph>
<glyph name="percent" format="1">
  <advance width="731"/>
  <unicode hex="0025"/>
  <outline>
    <contour>
      <point x="752" y="195" type="curve" smooth="yes"/>
      <point x="733" y="97"/>
      <point x="660" y="17"/>
      <point x="582" y="17" type="curve" smooth="yes"/>
      <point x="500" y="17"/>
      <point x="458" y="100"/>
      <point x="477" y="198" type="curve" smooth="yes"/>
      <point x="496" y="296"/>
      <point x="570" y="376"/>
      <point x="648" y="376" type="curve" smooth="yes"/>
      <point x="729" y="376"/>
      <point x="771" y="293"/>
    </contour>
    <contour>
      <point x="654" y="619" type="curve" smooth="yes"/>
      <point x="239" y="-10" type="line" smooth="yes"/>
      <point x="235" y="-16"/>
      <point x="229" y="-23"/>
      <point x="221" y="-26" type="curve"/>
      <point x="196" y="-22" type="line" smooth="yes"/>
      <point x="184" y="-20"/>
      <point x="186" y="-6"/>
      <point x="194" y="6" type="curve" smooth="yes"/>
      <point x="605" y="630"/>
      <point x="542" y="534"/>
      <point x="607" y="630" type="curve" smooth="yes"/>
      <point x="613" y="639"/>
      <point x="620" y="644"/>
      <point x="632" y="644" type="curve" smooth="yes"/>
      <point x="648" y="640" type="line" smooth="yes"/>
      <point x="663" y="633"/>
      <point x="656" y="622"/>
    </contour>
    <contour>
      <point x="384" y="460" type="curve" smooth="yes"/>
      <point x="365" y="362"/>
      <point x="292" y="282"/>
      <point x="214" y="282" type="curve" smooth="yes"/>
      <point x="133" y="282"/>
      <point x="91" y="366"/>
      <point x="110" y="464" type="curve" smooth="yes"/>
      <point x="129" y="562"/>
      <point x="203" y="641"/>
      <point x="281" y="641" type="curve" smooth="yes"/>
      <point x="361" y="641"/>
      <point x="403" y="558"/>
    </contour>
    <contour>
      <point x="678" y="198" type="curve" smooth="yes"/>
      <point x="699" y="306"/>
      <point x="683" y="343"/>
      <point x="645" y="343" type="curve" smooth="yes"/>
      <point x="604" y="343"/>
      <point x="571" y="301"/>
      <point x="551" y="195" type="curve" smooth="yes"/>
      <point x="530" y="87"/>
      <point x="547" y="50"/>
      <point x="585" y="50" type="curve" smooth="yes"/>
      <point x="626" y="50"/>
      <point x="658" y="92"/>
    </contour>
    <contour>
      <point x="311" y="464" type="curve" smooth="yes"/>
      <point x="332" y="572"/>
      <point x="315" y="608"/>
      <point x="278" y="608" type="curve" smooth="yes"/>
      <point x="237" y="608"/>
      <point x="204" y="566"/>
      <point x="183" y="460" type="curve" smooth="yes"/>
      <point x="162" y="352"/>
      <point x="180" y="315"/>
      <point x="217" y="315" type="curve" smooth="yes"/>
      <point x="259" y="315"/>
      <point x="291" y="358"/>
    </contour>
  </outline>
</glyph>
<glyph name="comma" format="1">
  <advance width="257"/>
  <unicode hex="002C"/>
  <outline>
    <contour>
      <point x="209" y="16" type="curve" smooth="yes"/>
      <point x="209" y="-60"/>
      <point x="165" y="-118"/>
      <point x="73" y="-172" type="curve" smooth="yes"/>
      <point x="52" y="-181"/>
      <point x="48" y="-158"/>
      <point x="61" y="-148" type="curve" smooth="yes"/>
      <point x="92" y="-123"/>
      <point x="140" y="-92"/>
      <point x="140" y="-46" type="curve" smooth="yes"/>
      <point x="140" y="-15"/>
      <point x="110" y="8"/>
      <point x="110" y="37" type="curve" smooth="yes"/>
      <point x="110" y="64"/>
      <point x="132" y="89"/>
      <point x="157" y="89" type="curve" smooth="yes"/>
      <point x="187" y="89"/>
      <point x="209" y="55"/>
    </contour>
  </outline>
</glyph>
<glyph name="period" format="1">
  <advance width="247"/>
  <unicode hex="002E"/>
  <outline>
    <contour>
      <point x="173" y="46" type="curve" smooth="yes"/>
      <point x="173" y="13"/>
      <point x="150" y="-14"/>
      <point x="121" y="-14" type="curve" smooth="yes"/>
      <point x="89" y="-14"/>
      <point x="78" y="15"/>
      <point x="81" y="42" type="curve" smooth="yes"/>
      <point x="84" y="72"/>
      <point x="104" y="96"/>
      <point x="130" y="96" type="curve" smooth="yes"/>
      <point x="155" y="96"/>
      <point x="173" y="74"/>
    </contour>
  </outline>
</glyph>
<glyph name="four" format="1">
  <advance width="448"/>
  <unicode hex="0034"/>
  <outline>
    <contour>
      <point x="420" y="94" type="curve" smooth="yes"/>
      <point x="440" y="95"/>
      <point x="428" y="30"/>
      <point x="411" y="33" type="curve"/>
      <point x="397" y="31"/>
      <point x="368" y="31"/>
      <point x="352" y="33" type="curve" smooth="yes"/>
      <point x="342" y="32"/>
      <point x="336" y="29"/>
      <point x="332" y="21" type="curve" smooth="yes"/>
      <point x="294" y="-167" type="line" smooth="yes"/>
      <point x="291" y="-181"/>
      <point x="279" y="-187"/>
      <point x="270" y="-185" type="curve" smooth="yes"/>
      <point x="238" y="-184" type="line" smooth="yes"/>
      <point x="225" y="-184"/>
      <point x="212" y="-179"/>
      <point x="215" y="-165" type="curve" smooth="yes"/>
      <point x="252" y="18" type="line" smooth="yes"/>
      <point x="255" y="25"/>
      <point x="248" y="32"/>
      <point x="240" y="33" type="curve" smooth="yes"/>
      <point x="191" y="30"/>
      <point x="123" y="32"/>
      <point x="82" y="33" type="curve" smooth="yes"/>
      <point x="72" y="33"/>
      <point x="62" y="42"/>
      <point x="62" y="52" type="curve" smooth="yes"/>
      <point x="62" y="66"/>
      <point x="61" y="73"/>
      <point x="71" y="85" type="curve" smooth="yes"/>
      <point x="185" y="227"/>
      <point x="274" y="337"/>
      <point x="373" y="435" type="curve" smooth="yes"/>
      <point x="382" y="444"/>
      <point x="388" y="444"/>
      <point x="401" y="444" type="curve" smooth="yes"/>
      <point x="422" y="444"/>
      <point x="412" y="415"/>
      <point x="410" y="404" type="curve" smooth="yes"/>
      <point x="350" y="108" type="line" smooth="yes"/>
      <point x="348" y="97"/>
      <point x="356" y="95"/>
      <point x="359" y="94" type="curve" smooth="yes"/>
      <point x="375" y="93"/>
      <point x="405" y="94"/>
    </contour>
    <contour>
      <point x="315" y="310" type="line" smooth="yes"/>
      <point x="317" y="320"/>
      <point x="313" y="330"/>
      <point x="308" y="324" type="curve" smooth="yes"/>
      <point x="237" y="247"/>
      <point x="176" y="167"/>
      <point x="123" y="101" type="curve" smooth="yes"/>
      <point x="120" y="95"/>
      <point x="130" y="92"/>
      <point x="138" y="90" type="curve" smooth="yes"/>
      <point x="167" y="89"/>
      <point x="225" y="89"/>
      <point x="255" y="90" type="curve" smooth="yes"/>
      <point x="257" y="91"/>
      <point x="270" y="91"/>
      <point x="271" y="97" type="curve" smooth="yes"/>
    </contour>
  </outline>
</glyph>
<glyph name="seven" format="1">
  <advance width="409"/>
  <unicode hex="0037"/>
  <outline>
    <contour>
      <point x="420" y="424" type="curve"/>
      <point x="414" y="407"/>
      <point x="405" y="391"/>
      <point x="396" y="375" type="curve" smooth="yes"/>
      <point x="127" y="-125" type="line" smooth="yes"/>
      <point x="117" y="-143"/>
      <point x="112" y="-173"/>
      <point x="87" y="-171" type="curve" smooth="yes"/>
      <point x="59" y="-169" type="line" smooth="yes"/>
      <point x="31" y="-167"/>
      <point x="51" y="-136"/>
      <point x="58" y="-124" type="curve" smooth="yes"/>
      <point x="339" y="351" type="line" smooth="yes"/>
      <point x="342" y="356"/>
      <point x="339" y="366"/>
      <point x="332" y="366" type="curve" smooth="yes"/>
      <point x="288" y="365"/>
      <point x="229" y="366"/>
      <point x="189" y="366" type="curve" smooth="yes"/>
      <point x="147" y="366"/>
      <point x="140" y="373"/>
      <point x="127" y="332" type="curve" smooth="yes"/>
      <point x="108" y="274" type="line" smooth="yes"/>
      <point x="105" y="266"/>
      <point x="94" y="266"/>
      <point x="87" y="270" type="curve" smooth="yes"/>
      <point x="81" y="273"/>
      <point x="82" y="278"/>
      <point x="84" y="287" type="curve" smooth="yes"/>
      <point x="91" y="321"/>
      <point x="105" y="387"/>
      <point x="116" y="418" type="curve" smooth="yes"/>
      <point x="124" y="440"/>
      <point x="132" y="441"/>
      <point x="155" y="443" type="curve" smooth="yes"/>
      <point x="231" y="448"/>
      <point x="279" y="441"/>
      <point x="338" y="441" type="curve" smooth="yes"/>
      <point x="357" y="441"/>
      <point x="384" y="442"/>
      <point x="409" y="444" type="curve" smooth="yes"/>
      <point x="421" y="445"/>
      <point x="420" y="437"/>
    </contour>
  </outline>
</glyph>
<glyph name="colon" format="1">
  <advance width="297"/>
  <unicode hex="003A"/>
  <outline>
    <contour>
      <point x="272" y="370" type="curve" smooth="yes"/>
      <point x="272" y="334"/>
      <point x="248" y="308"/>
      <point x="218" y="308" type="curve" smooth="yes"/>
      <point x="188" y="308"/>
      <point x="171" y="339"/>
      <point x="174" y="368" type="curve" smooth="yes"/>
      <point x="177" y="395"/>
      <point x="194" y="425"/>
      <point x="227" y="425" type="curve" smooth="yes"/>
      <point x="253" y="425"/>
      <point x="272" y="400"/>
    </contour>
    <contour>
      <point x="209" y="49" type="curve" smooth="yes"/>
      <point x="209" y="13"/>
      <point x="188" y="-14"/>
      <point x="158" y="-14" type="curve" smooth="yes"/>
      <point x="132" y="-14"/>
      <point x="112" y="9"/>
      <point x="112" y="39" type="curve" smooth="yes"/>
      <point x="112" y="68"/>
      <point x="133" y="102"/>
      <point x="166" y="102" type="curve" smooth="yes"/>
      <point x="192" y="102"/>
      <point x="209" y="79"/>
    </contour>
  </outline>
</glyph>
<glyph name="semicolon" format="1">
  <advance width="297"/>
  <unicode hex="003B"/>
  <outline>
    <contour>
      <point x="268" y="371" type="curve" smooth="yes"/>
      <point x="268" y="335"/>
      <point x="243" y="308"/>
      <point x="212" y="308" type="curve" smooth="yes"/>
      <point x="196" y="308"/>
      <point x="184" y="323"/>
      <point x="174" y="333" type="curve" smooth="yes"/>
      <point x="164" y="344"/>
      <point x="166" y="358"/>
      <point x="167" y="371" type="curve" smooth="yes"/>
      <point x="171" y="403"/>
      <point x="193" y="425"/>
      <point x="221" y="425" type="curve" smooth="yes"/>
      <point x="234" y="425"/>
      <point x="238" y="420"/>
      <point x="253" y="412" type="curve" smooth="yes"/>
      <point x="267" y="404"/>
      <point x="268" y="387"/>
    </contour>
    <contour>
      <point x="210" y="22" type="curve" smooth="yes"/>
      <point x="210" y="-57"/>
      <point x="166" y="-119"/>
      <point x="71" y="-177" type="curve" smooth="yes"/>
      <point x="68" y="-179"/>
      <point x="55" y="-177"/>
      <point x="54" y="-172" type="curve" smooth="yes"/>
      <point x="50" y="-165"/>
      <point x="48" y="-155"/>
      <point x="60" y="-148" type="curve" smooth="yes"/>
      <point x="94" y="-127"/>
      <point x="138" y="-91"/>
      <point x="138" y="-44" type="curve" smooth="yes"/>
      <point x="138" y="-30"/>
      <point x="136" y="-23"/>
      <point x="124" y="-2" type="curve" smooth="yes"/>
      <point x="113" y="19"/>
      <point x="109" y="33"/>
      <point x="109" y="48" type="curve" smooth="yes"/>
      <point x="109" y="77"/>
      <point x="129" y="101"/>
      <point x="156" y="101" type="curve" smooth="yes"/>
      <point x="188" y="101"/>
      <point x="210" y="64"/>
    </contour>
  </outline>
</glyph>
<glyph name="less" format="1">
  <advance width="679"/>
  <unicode hex="003C"/>
  <outline>
    <contour>
      <point x="609" y="74" type="line"/>
      <point x="70" y="307" type="line"/>
      <point x="70" y="362" type="line"/>
      <point x="609" y="594" type="line"/>
      <point x="609" y="523" type="line"/>
      <point x="162" y="334" type="line"/>
      <point x="609" y="145" type="line"/>
    </contour>
  </outline>
</glyph>
<glyph name="H" format="1">
  <advance width="773"/>
  <unicode hex="0048"/>
  <outline>
    <contour>
      <point x="830" y="647" type="curve" smooth="yes"/>
      <point x="846" y="648"/>
      <point x="837" y="613"/>
      <point x="826" y="611" type="curve" smooth="yes"/>
      <point x="818" y="611"/>
      <point x="808" y="613"/>
      <point x="800" y="612" type="curve" smooth="yes"/>
      <point x="756" y="608"/>
      <point x="740" y="591"/>
      <point x="724" y="516" type="curve" smooth="yes"/>
      <point x="639" y="114" type="line" smooth="yes"/>
      <point x="636" y="102"/>
      <point x="634" y="90"/>
      <point x="634" y="78" type="curve" smooth="yes"/>
      <point x="634" y="50"/>
      <point x="649" y="39"/>
      <point x="688" y="37" type="curve" smooth="yes"/>
      <point x="698" y="36"/>
      <point x="706" y="39"/>
      <point x="716" y="37" type="curve" smooth="yes"/>
      <point x="725" y="36"/>
      <point x="728" y="14"/>
      <point x="723" y="4" type="curve" smooth="yes"/>
      <point x="716" y="-7"/>
      <point x="703" y="-1"/>
      <point x="690" y="-1" type="curve" smooth="yes"/>
      <point x="616" y="1"/>
      <point x="521" y="-2"/>
      <point x="437" y="-3" type="curve" smooth="yes"/>
      <point x="424" y="-1"/>
      <point x="422" y="-2"/>
      <point x="420" y="4" type="curve" smooth="yes"/>
      <point x="416" y="15"/>
      <point x="422" y="36"/>
      <point x="433" y="35" type="curve" smooth="yes"/>
      <point x="445" y="38"/>
      <point x="459" y="34"/>
      <point x="472" y="35" type="curve" smooth="yes"/>
      <point x="515" y="40"/>
      <point x="529" y="56"/>
      <point x="542" y="116" type="curve" smooth="yes"/>
      <point x="578" y="286" type="line" smooth="yes"/>
      <point x="582" y="304"/>
      <point x="563" y="304"/>
      <point x="561" y="304" type="curve" smooth="yes"/>
      <point x="489" y="307"/>
      <point x="365" y="306"/>
      <point x="268" y="305" type="curve" smooth="yes"/>
      <point x="260" y="304"/>
      <point x="248" y="298"/>
      <point x="246" y="288" type="curve" smooth="yes"/>
      <point x="209" y="114" type="line" smooth="yes"/>
      <point x="197" y="59"/>
      <point x="199" y="35"/>
      <point x="269" y="35" type="curve" smooth="yes"/>
      <point x="278" y="37"/>
      <point x="284" y="36"/>
      <point x="293" y="34" type="curve" smooth="yes"/>
      <point x="312" y="34"/>
      <point x="303" y="-5"/>
      <point x="291" y="-3" type="curve" smooth="yes"/>
      <point x="194" y="-1"/>
      <point x="102" y="-1"/>
      <point x="-5" y="-3" type="curve" smooth="yes"/>
      <point x="-17" y="-3"/>
      <point x="-14" y="33"/>
      <point x="1" y="34" type="curve" smooth="yes"/>
      <point x="21" y="35" type="line" smooth="yes"/>
      <point x="77" y="38"/>
      <point x="99" y="50"/>
      <point x="115" y="128" type="curve" smooth="yes"/>
      <point x="200" y="532" type="line" smooth="yes"/>
      <point x="209" y="574"/>
      <point x="215" y="613"/>
      <point x="153" y="609" type="curve" smooth="yes"/>
      <point x="129" y="608"/>
      <point x="125" y="613"/>
      <point x="117" y="612" type="curve" smooth="yes"/>
      <point x="103" y="615"/>
      <point x="106" y="649"/>
      <point x="123" y="648" type="curve" smooth="yes"/>
      <point x="196" y="646"/>
      <point x="338" y="645"/>
      <point x="408" y="648" type="curve" smooth="yes"/>
      <point x="423" y="650"/>
      <point x="418" y="610"/>
      <point x="406" y="610" type="curve" smooth="yes"/>
      <point x="393" y="611"/>
      <point x="379" y="611"/>
      <point x="366" y="610" type="curve" smooth="yes"/>
      <point x="325" y="607"/>
      <point x="309" y="590"/>
      <point x="296" y="529" type="curve" smooth="yes"/>
      <point x="263" y="370" type="line" smooth="yes"/>
      <point x="258" y="358"/>
      <point x="269" y="350"/>
      <point x="274" y="350" type="curve" smooth="yes"/>
      <point x="361" y="352"/>
      <point x="503" y="352"/>
      <point x="576" y="350" type="curve" smooth="yes"/>
      <point x="583" y="350"/>
      <point x="594" y="356"/>
      <point x="595" y="362" type="curve" smooth="yes"/>
      <point x="630" y="532" type="line" smooth="yes"/>
      <point x="643" y="596"/>
      <point x="629" y="612"/>
      <point x="561" y="612" type="curve" smooth="yes"/>
      <point x="549" y="612"/>
      <point x="549" y="647"/>
      <point x="566" y="647" type="curve" smooth="yes"/>
      <point x="629" y="645"/>
      <point x="759" y="645"/>
    </contour>
  </outline>
</glyph>
<glyph name="I" format="1">
  <advance width="356"/>
  <unicode hex="0049"/>
  <outline>
    <contour>
      <point x="417" y="646" type="curve" smooth="yes"/>
      <point x="437" y="646"/>
      <point x="425" y="614"/>
      <point x="415" y="613" type="curve" smooth="yes"/>
      <point x="412" y="612"/>
      <point x="408" y="611"/>
      <point x="404" y="612" type="curve" smooth="yes"/>
      <point x="344" y="609"/>
      <point x="331" y="600"/>
      <point x="316" y="529" type="curve" smooth="yes"/>
      <point x="229" y="114" type="line" smooth="yes"/>
      <point x="227" y="103"/>
      <point x="223" y="93"/>
      <point x="223" y="82" type="curve" smooth="yes"/>
      <point x="223" y="34"/>
      <point x="256" y="32"/>
      <point x="302" y="33" type="curve" smooth="yes"/>
      <point x="320" y="33"/>
      <point x="314" y="-2"/>
      <point x="300" y="-3" type="curve" smooth="yes"/>
      <point x="215" y="0"/>
      <point x="119" y="0"/>
      <point x="34" y="-3" type="curve" smooth="yes"/>
      <point x="15" y="-4"/>
      <point x="22" y="34"/>
      <point x="39" y="34" type="curve" smooth="yes"/>
      <point x="104" y="33"/>
      <point x="120" y="55"/>
      <point x="133" y="116" type="curve" smooth="yes"/>
      <point x="220" y="532" type="line" smooth="yes"/>
      <point x="224" y="553"/>
      <point x="226" y="566"/>
      <point x="226" y="574" type="curve" smooth="yes"/>
      <point x="226" y="599"/>
      <point x="209" y="607"/>
      <point x="167" y="609" type="curve" smooth="yes"/>
      <point x="163" y="609"/>
      <point x="154" y="609"/>
      <point x="150" y="610" type="curve" smooth="yes"/>
      <point x="136" y="614"/>
      <point x="140" y="631"/>
      <point x="147" y="640" type="curve" smooth="yes"/>
      <point x="152" y="647"/>
      <point x="155" y="646"/>
      <point x="165" y="646" type="curve" smooth="yes"/>
      <point x="240" y="645"/>
      <point x="348" y="644"/>
    </contour>
  </outline>
</glyph>
<glyph name="K" format="1">
  <advance width="710"/>
  <unicode hex="004B"/>
  <outline>
    <contour>
      <point x="792" y="637" type="curve" smooth="yes"/>
      <point x="793" y="630"/>
      <point x="789" y="616"/>
      <point x="782" y="615" type="curve" smooth="yes"/>
      <point x="766" y="612"/>
      <point x="750" y="608"/>
      <point x="734" y="604" type="curve" smooth="yes"/>
      <point x="695" y="596"/>
      <point x="637" y="571"/>
      <point x="559" y="511" type="curve" smooth="yes"/>
      <point x="559" y="511"/>
      <point x="454" y="432"/>
      <point x="378" y="373" type="curve" smooth="yes"/>
      <point x="368" y="366"/>
      <point x="363" y="354"/>
      <point x="368" y="347" type="curve" smooth="yes"/>
      <point x="417" y="282"/>
      <point x="515" y="157"/>
      <point x="568" y="93" type="curve" smooth="yes"/>
      <point x="608" y="44"/>
      <point x="642" y="31"/>
      <point x="687" y="31" type="curve" smooth="yes"/>
      <point x="694" y="31" type="line" smooth="yes"/>
      <point x="710" y="31"/>
      <point x="702" y="-5"/>
      <point x="688" y="-3" type="curve" smooth="yes"/>
      <point x="650" y="-2"/>
      <point x="591" y="-1"/>
      <point x="548" y="-3" type="curve" smooth="yes"/>
      <point x="539" y="-3"/>
      <point x="529" y="0"/>
      <point x="525" y="3" type="curve" smooth="yes"/>
      <point x="465" y="76"/>
      <point x="363" y="205"/>
      <point x="303" y="284" type="curve" smooth="yes"/>
      <point x="297" y="293"/>
      <point x="281" y="303"/>
      <point x="274" y="299" type="curve" smooth="yes"/>
      <point x="258" y="289"/>
      <point x="257" y="289"/>
      <point x="250" y="271" type="curve" smooth="yes"/>
      <point x="218" y="113" type="line" smooth="yes"/>
      <point x="207" y="57"/>
      <point x="202" y="32"/>
      <point x="280" y="32" type="curve" smooth="yes"/>
      <point x="286" y="32"/>
      <point x="294" y="32"/>
      <point x="298" y="27" type="curve" smooth="yes"/>
      <point x="301" y="23"/>
      <point x="301" y="20"/>
      <point x="300" y="15" type="curve" smooth="yes"/>
      <point x="298" y="6"/>
      <point x="297" y="-1"/>
      <point x="287" y="-4" type="curve" smooth="yes"/>
      <point x="219" y="-2"/>
      <point x="86" y="-1"/>
      <point x="22" y="-4" type="curve" smooth="yes"/>
      <point x="17" y="-3"/>
      <point x="13" y="-1"/>
      <point x="11" y="2" type="curve" smooth="yes"/>
      <point x="5" y="11"/>
      <point x="14" y="27"/>
      <point x="20" y="29" type="curve" smooth="yes"/>
      <point x="29" y="32"/>
      <point x="37" y="31"/>
      <point x="48" y="32" type="curve" smooth="yes"/>
      <point x="94" y="35"/>
      <point x="109" y="53"/>
      <point x="122" y="115" type="curve" smooth="yes"/>
      <point x="209" y="531" type="line" smooth="yes"/>
      <point x="213" y="552"/>
      <point x="215" y="565"/>
      <point x="215" y="573" type="curve" smooth="yes"/>
      <point x="215" y="598"/>
      <point x="200" y="613"/>
      <point x="159" y="613" type="curve" smooth="yes"/>
      <point x="153" y="613" type="line" smooth="yes"/>
      <point x="141" y="611"/>
      <point x="139" y="636"/>
      <point x="150" y="643" type="curve" smooth="yes"/>
      <point x="156" y="647"/>
      <point x="159" y="647"/>
      <point x="169" y="646" type="curve" smooth="yes"/>
      <point x="230" y="646"/>
      <point x="346" y="644"/>
      <point x="408" y="646" type="curve" smooth="yes"/>
      <point x="415" y="646"/>
      <point x="419" y="641"/>
      <point x="420" y="635" type="curve" smooth="yes"/>
      <point x="421" y="626"/>
      <point x="414" y="612"/>
      <point x="404" y="612" type="curve" smooth="yes"/>
      <point x="394" y="613" type="line"/>
      <point x="335" y="613"/>
      <point x="319" y="599"/>
      <point x="304" y="528" type="curve" smooth="yes"/>
      <point x="271" y="372" type="line" smooth="yes"/>
      <point x="270" y="364"/>
      <point x="274" y="348"/>
      <point x="283" y="355" type="curve" smooth="yes"/>
      <point x="381" y="426"/>
      <point x="463" y="492"/>
      <point x="562" y="561" type="curve" smooth="yes"/>
      <point x="573" y="567"/>
      <point x="582" y="583"/>
      <point x="582" y="591" type="curve" smooth="yes"/>
      <point x="582" y="599"/>
      <point x="580" y="612"/>
      <point x="552" y="612" type="curve" smooth="yes"/>
      <point x="546" y="612" type="line" smooth="yes"/>
      <point x="532" y="612"/>
      <point x="538" y="645"/>
      <point x="554" y="645" type="curve" smooth="yes"/>
      <point x="610" y="643"/>
      <point x="721" y="644"/>
      <point x="775" y="646" type="curve" smooth="yes"/>
      <point x="781" y="646"/>
      <point x="791" y="646"/>
    </contour>
  </outline>
</glyph>
<glyph name="L" format="1">
  <advance width="603"/>
  <unicode hex="004C"/>
  <outline>
    <contour>
      <point x="613" y="139" type="curve" smooth="yes"/>
      <point x="601" y="108"/>
      <point x="581" y="52"/>
      <point x="569" y="14" type="curve" smooth="yes"/>
      <point x="563" y="-5"/>
      <point x="539" y="-1"/>
      <point x="522" y="-1" type="curve" smooth="yes"/>
      <point x="348" y="0"/>
      <point x="168" y="-1"/>
      <point x="35" y="-1" type="curve" smooth="yes"/>
      <point x="28" y="-1"/>
      <point x="18" y="-5"/>
      <point x="16" y="5" type="curve" smooth="yes"/>
      <point x="12" y="19"/>
      <point x="20" y="35"/>
      <point x="30" y="37" type="curve" smooth="yes"/>
      <point x="38" y="41"/>
      <point x="46" y="38"/>
      <point x="55" y="39" type="curve" smooth="yes"/>
      <point x="101" y="42"/>
      <point x="117" y="58"/>
      <point x="132" y="130" type="curve" smooth="yes"/>
      <point x="216" y="532" type="line" smooth="yes"/>
      <point x="227" y="587"/>
      <point x="220" y="610"/>
      <point x="160" y="610" type="curve" smooth="yes"/>
      <point x="150" y="610"/>
      <point x="146" y="608"/>
      <point x="136" y="611" type="curve" smooth="yes"/>
      <point x="129" y="617"/>
      <point x="136" y="646"/>
      <point x="147" y="646" type="curve" smooth="yes"/>
      <point x="209" y="644"/>
      <point x="343" y="642"/>
      <point x="421" y="646" type="curve" smooth="yes"/>
      <point x="430" y="646"/>
      <point x="431" y="636"/>
      <point x="430" y="629" type="curve" smooth="yes"/>
      <point x="428" y="622"/>
      <point x="421" y="608"/>
      <point x="416" y="609" type="curve" smooth="yes"/>
      <point x="404" y="609" type="line" smooth="yes"/>
      <point x="344" y="609"/>
      <point x="327" y="600"/>
      <point x="312" y="529" type="curve" smooth="yes"/>
      <point x="227" y="123" type="line" smooth="yes"/>
      <point x="219" y="83"/>
      <point x="216" y="45"/>
      <point x="270" y="45" type="curve" smooth="yes"/>
      <point x="363" y="45" type="line" smooth="yes"/>
      <point x="422" y="45"/>
      <point x="463" y="54"/>
      <point x="500" y="74" type="curve" smooth="yes"/>
      <point x="532" y="92"/>
      <point x="553" y="110"/>
      <point x="585" y="151" type="curve" smooth="yes"/>
      <point x="590" y="157"/>
      <point x="606" y="157"/>
      <point x="612" y="153" type="curve" smooth="yes"/>
      <point x="616" y="151"/>
      <point x="616" y="142"/>
    </contour>
  </outline>
</glyph>
<glyph name="O" format="1">
  <advance width="819"/>
  <unicode hex="004F"/>
  <outline>
    <contour>
      <point x="776" y="357" type="curve" smooth="yes"/>
      <point x="776" y="150"/>
      <point x="600" y="-18"/>
      <point x="383" y="-18" type="curve" smooth="yes"/>
      <point x="209" y="-18"/>
      <point x="85" y="115"/>
      <point x="85" y="288" type="curve" smooth="yes"/>
      <point x="85" y="491"/>
      <point x="264" y="662"/>
      <point x="475" y="662" type="curve" smooth="yes"/>
      <point x="649" y="662"/>
      <point x="776" y="529"/>
    </contour>
    <contour>
      <point x="676" y="388" type="curve" smooth="yes"/>
      <point x="676" y="528"/>
      <point x="598" y="624"/>
      <point x="476" y="623" type="curve" smooth="yes"/>
      <point x="286" y="622"/>
      <point x="185" y="437"/>
      <point x="185" y="262" type="curve" smooth="yes"/>
      <point x="185" y="113"/>
      <point x="258" y="22"/>
      <point x="384" y="21" type="curve" smooth="yes"/>
      <point x="546" y="19"/>
      <point x="676" y="179"/>
    </contour>
  </outline>
</glyph>
<glyph name="W" format="1">
  <advance width="897"/>
  <unicode hex="0057"/>
  <outline>
    <contour>
      <point x="1010" y="642" type="curve" smooth="yes"/>
      <point x="1012" y="636"/>
      <point x="1010" y="625"/>
      <point x="1006" y="619" type="curve" smooth="yes"/>
      <point x="1003" y="616"/>
      <point x="997" y="614"/>
      <point x="994" y="614" type="curve" smooth="yes"/>
      <point x="962" y="606"/>
      <point x="936" y="587"/>
      <point x="896" y="531" type="curve" smooth="yes"/>
      <point x="510" y="-9" type="line" smooth="yes"/>
      <point x="507" y="-14"/>
      <point x="488" y="-16"/>
      <point x="477" y="-16" type="curve" smooth="yes"/>
      <point x="465" y="-16"/>
      <point x="452" y="-13"/>
      <point x="452" y="-6" type="curve" smooth="yes"/>
      <point x="483" y="427" type="line" smooth="yes"/>
      <point x="484" y="440"/>
      <point x="468" y="433"/>
      <point x="460" y="423" type="curve" smooth="yes"/>
      <point x="447" y="406"/>
      <point x="128" y="-11"/>
      <point x="128" y="-11" type="curve" smooth="yes"/>
      <point x="120" y="-21"/>
      <point x="78" y="-19"/>
      <point x="79" y="-7" type="curve" smooth="yes"/>
      <point x="125" y="540" type="line" smooth="yes"/>
      <point x="126" y="546"/>
      <point x="126" y="552"/>
      <point x="126" y="558" type="curve" smooth="yes"/>
      <point x="126" y="606"/>
      <point x="107" y="610"/>
      <point x="88" y="611" type="curve" smooth="yes"/>
      <point x="79" y="611"/>
      <point x="70" y="610"/>
      <point x="61" y="612" type="curve" smooth="yes"/>
      <point x="52" y="613"/>
      <point x="48" y="621"/>
      <point x="50" y="632" type="curve" smooth="yes"/>
      <point x="52" y="637"/>
      <point x="54" y="647"/>
      <point x="62" y="647" type="curve" smooth="yes"/>
      <point x="118" y="645"/>
      <point x="235" y="644"/>
      <point x="300" y="647" type="curve" smooth="yes"/>
      <point x="317" y="648"/>
      <point x="309" y="613"/>
      <point x="298" y="613" type="curve" smooth="yes"/>
      <point x="233" y="605"/>
      <point x="226" y="595"/>
      <point x="218" y="523" type="curve" smooth="yes"/>
      <point x="180" y="159" type="line" smooth="yes"/>
      <point x="179" y="151"/>
      <point x="191" y="150"/>
      <point x="201" y="163" type="curve" smooth="yes"/>
      <point x="485" y="525" type="line"/>
      <point x="485" y="560" type="line" smooth="yes"/>
      <point x="485" y="603"/>
      <point x="476" y="611"/>
      <point x="414" y="613" type="curve" smooth="yes"/>
      <point x="398" y="611"/>
      <point x="403" y="647"/>
      <point x="416" y="647" type="curve" smooth="yes"/>
      <point x="489" y="646"/>
      <point x="589" y="646"/>
      <point x="664" y="647" type="curve" smooth="yes"/>
      <point x="681" y="647"/>
      <point x="671" y="612"/>
      <point x="660" y="612" type="curve" smooth="yes"/>
      <point x="587" y="604"/>
      <point x="587" y="601"/>
      <point x="582" y="535" type="curve" smooth="yes"/>
      <point x="555" y="149" type="line" smooth="yes"/>
      <point x="554" y="140"/>
      <point x="576" y="155"/>
      <point x="581" y="162" type="curve" smooth="yes"/>
      <point x="836" y="520" type="line" smooth="yes"/>
      <point x="854" y="545"/>
      <point x="863" y="563"/>
      <point x="863" y="577" type="curve" smooth="yes"/>
      <point x="863" y="605"/>
      <point x="844" y="611"/>
      <point x="821" y="612" type="curve" smooth="yes"/>
      <point x="814" y="612"/>
      <point x="804" y="611"/>
      <point x="797" y="611" type="curve" smooth="yes"/>
      <point x="782" y="611"/>
      <point x="789" y="649"/>
      <point x="804" y="647" type="curve" smooth="yes"/>
      <point x="860" y="646"/>
      <point x="930" y="646"/>
      <point x="998" y="647" type="curve" smooth="yes"/>
      <point x="1002" y="647"/>
      <point x="1008" y="645"/>
    </contour>
  </outline>
</glyph>
<glyph name="Y" format="1">
  <advance width="653"/>
  <unicode hex="0059"/>
  <outline>
    <contour>
      <point x="764" y="633" type="curve" smooth="yes"/>
      <point x="761" y="622"/>
      <point x="755" y="619"/>
      <point x="755" y="618" type="curve" smooth="yes"/>
      <point x="713" y="602"/>
      <point x="701" y="596"/>
      <point x="660" y="549" type="curve" smooth="yes"/>
      <point x="410" y="261" type="line"/>
      <point x="380" y="114" type="line" smooth="yes"/>
      <point x="377" y="97"/>
      <point x="370" y="75"/>
      <point x="377" y="59" type="curve" smooth="yes"/>
      <point x="383" y="45"/>
      <point x="400" y="35"/>
      <point x="442" y="36" type="curve" smooth="yes"/>
      <point x="450" y="36"/>
      <point x="465" y="39"/>
      <point x="472" y="34" type="curve" smooth="yes"/>
      <point x="481" y="28"/>
      <point x="475" y="-3"/>
      <point x="464" y="-3" type="curve" smooth="yes"/>
      <point x="394" y="0"/>
      <point x="249" y="1"/>
      <point x="167" y="-3" type="curve" smooth="yes"/>
      <point x="153" y="-1"/>
      <point x="157" y="35"/>
      <point x="171" y="36" type="curve" smooth="yes"/>
      <point x="186" y="37" type="line" smooth="yes"/>
      <point x="200" y="38"/>
      <point x="213" y="39"/>
      <point x="224" y="40" type="curve" smooth="yes"/>
      <point x="234" y="42"/>
      <point x="243" y="45"/>
      <point x="250" y="49" type="curve" smooth="yes"/>
      <point x="265" y="59"/>
      <point x="275" y="76"/>
      <point x="283" y="116" type="curve" smooth="yes"/>
      <point x="314" y="264" type="line"/>
      <point x="191" y="545" type="line" smooth="yes"/>
      <point x="167" y="599"/>
      <point x="153" y="611"/>
      <point x="123" y="614" type="curve" smooth="yes"/>
      <point x="111" y="615"/>
      <point x="101" y="614"/>
      <point x="104" y="632" type="curve" smooth="yes"/>
      <point x="105" y="637"/>
      <point x="110" y="647"/>
      <point x="116" y="647" type="curve" smooth="yes"/>
      <point x="168" y="644"/>
      <point x="275" y="642"/>
      <point x="334" y="647" type="curve" smooth="yes"/>
      <point x="340" y="646"/>
      <point x="345" y="641"/>
      <point x="342" y="629" type="curve" smooth="yes"/>
      <point x="340" y="621"/>
      <point x="337" y="614"/>
      <point x="330" y="615" type="curve" smooth="yes"/>
      <point x="275" y="610"/>
      <point x="266" y="609"/>
      <point x="293" y="547" type="curve" smooth="yes"/>
      <point x="392" y="320" type="line" smooth="yes"/>
      <point x="393" y="316"/>
      <point x="407" y="322"/>
      <point x="412" y="328" type="curve" smooth="yes"/>
      <point x="586" y="529" type="line" smooth="yes"/>
      <point x="616" y="564"/>
      <point x="623" y="574"/>
      <point x="623" y="586" type="curve" smooth="yes"/>
      <point x="623" y="603"/>
      <point x="608" y="613"/>
      <point x="565" y="615" type="curve" smooth="yes"/>
      <point x="553" y="617"/>
      <point x="557" y="649"/>
      <point x="569" y="647" type="curve" smooth="yes"/>
      <point x="576" y="648"/>
      <point x="583" y="648"/>
      <point x="589" y="646" type="curve" smooth="yes"/>
      <point x="639" y="645"/>
      <point x="707" y="645"/>
      <point x="753" y="646" type="curve" smooth="yes"/>
      <point x="761" y="647"/>
      <point x="766" y="639"/>
    </contour>
  </outline>
</glyph>
<glyph name="bracketleft" format="1">
  <advance width="307"/>
  <unicode hex="005B"/>
  <outline>
    <contour>
      <point x="433" y="668" type="curve" smooth="yes"/>
      <point x="428" y="655"/>
      <point x="424" y="652"/>
      <point x="411" y="652" type="curve" smooth="yes"/>
      <point x="334" y="652" type="line" smooth="yes"/>
      <point x="310" y="652"/>
      <point x="303" y="645"/>
      <point x="298" y="618" type="curve" smooth="yes"/>
      <point x="143" y="-165" type="line" smooth="yes"/>
      <point x="136" y="-200"/>
      <point x="148" y="-199"/>
      <point x="187" y="-200" type="curve" smooth="yes"/>
      <point x="201" y="-200"/>
      <point x="230" y="-201"/>
      <point x="243" y="-200" type="curve" smooth="yes"/>
      <point x="255" y="-200"/>
      <point x="258" y="-203"/>
      <point x="260" y="-208" type="curve" smooth="yes"/>
      <point x="258" y="-218" type="line" smooth="yes"/>
      <point x="256" y="-223"/>
      <point x="250" y="-228"/>
      <point x="238" y="-228" type="curve" smooth="yes"/>
      <point x="93" y="-228" type="line" smooth="yes"/>
      <point x="60" y="-228"/>
      <point x="62" y="-214"/>
      <point x="62" y="-209" type="curve" smooth="yes"/>
      <point x="232" y="661" type="line" smooth="yes"/>
      <point x="235" y="669"/>
      <point x="243" y="677"/>
      <point x="257" y="681" type="curve"/>
      <point x="421" y="681" type="line" smooth="yes"/>
      <point x="432" y="680"/>
      <point x="433" y="676"/>
    </contour>
  </outline>
</glyph>
<glyph name="backslash" format="1">
  <advance width="223"/>
  <unicode hex="005C"/>
  <outline>
    <contour>
      <point x="226" y="22" type="line" smooth="yes"/>
      <point x="229" y="-1"/>
      <point x="228" y="-12"/>
      <point x="211" y="-16" type="curve"/>
      <point x="182" y="-16" type="line" smooth="yes"/>
      <point x="180" y="-16"/>
      <point x="160" y="-17"/>
      <point x="157" y="4" type="curve" smooth="yes"/>
      <point x="78" y="630" type="line" smooth="yes"/>
      <point x="78" y="642"/>
      <point x="85" y="662"/>
      <point x="99" y="662" type="curve" smooth="yes"/>
      <point x="121" y="662" type="line"/>
      <point x="148" y="657"/>
      <point x="143" y="644"/>
      <point x="151" y="625" type="curve"/>
    </contour>
  </outline>
</glyph>
<glyph name="grave" format="1">
  <advance width="339"/>
  <unicode hex="0060"/>
  <outline>
    <contour>
      <point x="313" y="504" type="curve" smooth="yes"/>
      <point x="317" y="491"/>
      <point x="295" y="492"/>
      <point x="290" y="499" type="curve" smooth="yes"/>
      <point x="263" y="535"/>
      <point x="210" y="602"/>
      <point x="177" y="635" type="curve" smooth="yes"/>
      <point x="165" y="647"/>
      <point x="181" y="657"/>
      <point x="187" y="657" type="curve" smooth="yes"/>
      <point x="243" y="657" type="line" smooth="yes"/>
      <point x="253" y="657"/>
      <point x="262" y="656"/>
      <point x="269" y="643" type="curve" smooth="yes"/>
      <point x="281" y="621"/>
      <point x="303" y="539"/>
    </contour>
  </outline>
</glyph>
<glyph name="o" format="1">
  <advance width="401"/>
  <unicode hex="006F"/>
  <outline>
    <contour>
      <point x="374" y="273" type="curve" smooth="yes"/>
      <point x="374" y="212"/>
      <point x="355" y="153"/>
      <point x="320" y="107" type="curve" smooth="yes"/>
      <point x="290" y="68"/>
      <point x="238" y="25"/>
      <point x="189" y="4" type="curve" smooth="yes"/>
      <point x="167" y="-6"/>
      <point x="147" y="-12"/>
      <point x="133" y="-12" type="curve" smooth="yes"/>
      <point x="85" y="-12"/>
      <point x="38" y="71"/>
      <point x="38" y="155" type="curve" smooth="yes"/>
      <point x="38" y="242"/>
      <point x="89" y="327"/>
      <point x="174" y="385" type="curve" smooth="yes"/>
      <point x="211" y="411"/>
      <point x="252" y="429"/>
      <point x="277" y="429" type="curve" smooth="yes"/>
      <point x="325" y="429"/>
      <point x="374" y="353"/>
    </contour>
    <contour>
      <point x="299" y="260" type="curve" smooth="yes"/>
      <point x="299" y="330"/>
      <point x="265" y="379"/>
      <point x="228" y="379" type="curve" smooth="yes"/>
      <point x="171" y="379"/>
      <point x="115" y="275"/>
      <point x="115" y="152" type="curve" smooth="yes"/>
      <point x="115" y="85"/>
      <point x="146" y="37"/>
      <point x="177" y="37" type="curve" smooth="yes"/>
      <point x="238" y="37"/>
      <point x="299" y="140"/>
    </contour>
  </outline>
</glyph>
<glyph name="r" format="1">
  <advance width="323"/>
  <unicode hex="0072"/>
  <outline>
    <contour>
      <point x="341" y="392" type="curve" smooth="yes"/>
      <point x="345" y="353"/>
      <point x="330" y="324"/>
      <point x="296" y="335" type="curve" smooth="yes"/>
      <point x="290" y="337"/>
      <point x="285" y="339"/>
      <point x="279" y="341" type="curve" smooth="yes"/>
      <point x="250" y="336"/>
      <point x="227" y="304"/>
      <point x="207" y="263" type="curve" smooth="yes"/>
      <point x="186" y="219"/>
      <point x="169" y="179"/>
      <point x="159" y="153" type="curve" smooth="yes"/>
      <point x="147" y="120"/>
      <point x="141" y="89"/>
      <point x="137" y="72" type="curve" smooth="yes"/>
      <point x="135" y="60"/>
      <point x="127" y="27"/>
      <point x="125" y="15" type="curve" smooth="yes"/>
      <point x="123" y="3"/>
      <point x="120" y="-12"/>
      <point x="101" y="-12" type="curve" smooth="yes"/>
      <point x="91" y="-12"/>
      <point x="80" y="-12"/>
      <point x="70" y="-12" type="curve" smooth="yes"/>
      <point x="53" y="-12"/>
      <point x="55" y="3"/>
      <point x="57" y="15" type="curve" smooth="yes"/>
      <point x="72" y="90"/>
      <point x="97" y="235"/>
      <point x="109" y="324" type="curve" smooth="yes"/>
      <point x="110" y="334"/>
      <point x="112" y="354"/>
      <point x="96" y="339" type="curve" smooth="yes"/>
      <point x="82" y="326"/>
      <point x="61" y="298"/>
      <point x="58" y="294" type="curve" smooth="yes"/>
      <point x="47" y="276"/>
      <point x="27" y="299"/>
      <point x="41" y="315" type="curve" smooth="yes"/>
      <point x="102" y="390"/>
      <point x="137" y="428"/>
      <point x="161" y="428" type="curve" smooth="yes"/>
      <point x="196" y="428"/>
      <point x="184" y="371"/>
      <point x="181" y="350" type="curve" smooth="yes"/>
      <point x="176" y="317"/>
      <point x="170" y="286"/>
      <point x="165" y="262" type="curve" smooth="yes"/>
      <point x="163" y="252"/>
      <point x="163" y="248"/>
      <point x="161" y="242" type="curve" smooth="yes"/>
      <point x="159" y="228"/>
      <point x="163" y="235"/>
      <point x="167" y="246" type="curve" smooth="yes"/>
      <point x="194" y="315"/>
      <point x="245" y="428"/>
      <point x="301" y="428" type="curve" smooth="yes"/>
      <point x="318" y="428"/>
      <point x="339" y="419"/>
    </contour>
  </outline>
</glyph>
<glyph name="u" format="1">
  <advance width="487"/>
  <unicode hex="0075"/>
  <outline>
    <contour>
      <point x="463" y="106" type="curve" smooth="yes"/>
      <point x="414" y="42"/>
      <point x="349" y="-12"/>
      <point x="326" y="-12" type="curve" smooth="yes"/>
      <point x="309" y="-12"/>
      <point x="302" y="5"/>
      <point x="302" y="23" type="curve" smooth="yes"/>
      <point x="302" y="67"/>
      <point x="310" y="110"/>
      <point x="322" y="158" type="curve" smooth="yes"/>
      <point x="324" y="166"/>
      <point x="327" y="194"/>
      <point x="319" y="182" type="curve" smooth="yes"/>
      <point x="245" y="69"/>
      <point x="158" y="-12"/>
      <point x="114" y="-12" type="curve" smooth="yes"/>
      <point x="65" y="-12"/>
      <point x="85" y="92"/>
      <point x="89" y="114" type="curve" smooth="yes"/>
      <point x="131" y="323" type="line" smooth="yes"/>
      <point x="133" y="331"/>
      <point x="135" y="347"/>
      <point x="125" y="339" type="curve" smooth="yes"/>
      <point x="111" y="329"/>
      <point x="86" y="300"/>
      <point x="80" y="292" type="curve" smooth="yes"/>
      <point x="66" y="275"/>
      <point x="50" y="296"/>
      <point x="58" y="307" type="curve" smooth="yes"/>
      <point x="75" y="330"/>
      <point x="145" y="427"/>
      <point x="191" y="427" type="curve" smooth="yes"/>
      <point x="225" y="427"/>
      <point x="214" y="373"/>
      <point x="210" y="353" type="curve" smooth="yes"/>
      <point x="162" y="111" type="line" smooth="yes"/>
      <point x="159" y="101"/>
      <point x="153" y="48"/>
      <point x="179" y="71" type="curve" smooth="yes"/>
      <point x="231" y="119"/>
      <point x="271" y="173"/>
      <point x="310" y="227" type="curve" smooth="yes"/>
      <point x="330" y="255"/>
      <point x="340" y="275"/>
      <point x="349" y="305" type="curve" smooth="yes"/>
      <point x="360" y="339"/>
      <point x="365" y="376"/>
      <point x="371" y="411" type="curve" smooth="yes"/>
      <point x="373" y="423"/>
      <point x="375" y="431"/>
      <point x="392" y="430" type="curve" smooth="yes"/>
      <point x="407" y="429"/>
      <point x="408" y="430"/>
      <point x="427" y="430" type="curve" smooth="yes"/>
      <point x="450" y="431"/>
      <point x="447" y="413"/>
      <point x="445" y="401" type="curve" smooth="yes"/>
      <point x="382" y="85" type="line" smooth="yes"/>
      <point x="380" y="75"/>
      <point x="381" y="62"/>
      <point x="405" y="88" type="curve" smooth="yes"/>
      <point x="417" y="101"/>
      <point x="428" y="115"/>
      <point x="438" y="129" type="curve" smooth="yes"/>
      <point x="448" y="143"/>
      <point x="468" y="119"/>
    </contour>
  </outline>
</glyph>
<glyph name="v" format="1">
  <advance width="406"/>
  <unicode hex="0076"/>
  <outline>
    <contour>
      <point x="417" y="362" type="curve" smooth="yes"/>
      <point x="417" y="255"/>
      <point x="196" y="-12"/>
      <point x="110" y="-12" type="curve" smooth="yes"/>
      <point x="63" y="-12"/>
      <point x="83" y="107"/>
      <point x="87" y="134" type="curve" smooth="yes"/>
      <point x="116" y="316" type="line" smooth="yes"/>
      <point x="118" y="327"/>
      <point x="127" y="361"/>
      <point x="106" y="342" type="curve" smooth="yes"/>
      <point x="95" y="333"/>
      <point x="79" y="314"/>
      <point x="62" y="290" type="curve" smooth="yes"/>
      <point x="51" y="275"/>
      <point x="30" y="295"/>
      <point x="40" y="309" type="curve" smooth="yes"/>
      <point x="86" y="373"/>
      <point x="137" y="428"/>
      <point x="169" y="428" type="curve" smooth="yes"/>
      <point x="188" y="428"/>
      <point x="196" y="410"/>
      <point x="196" y="389" type="curve" smooth="yes"/>
      <point x="196" y="380"/>
      <point x="192" y="351"/>
      <point x="188" y="327" type="curve" smooth="yes"/>
      <point x="150" y="91" type="line" smooth="yes"/>
      <point x="149" y="85"/>
      <point x="144" y="48"/>
      <point x="154" y="48" type="curve" smooth="yes"/>
      <point x="218" y="48"/>
      <point x="338" y="271"/>
      <point x="338" y="339" type="curve" smooth="yes"/>
      <point x="338" y="350"/>
      <point x="337" y="351"/>
      <point x="328" y="356" type="curve" smooth="yes"/>
      <point x="319" y="361"/>
      <point x="313" y="368"/>
      <point x="313" y="378" type="curve" smooth="yes"/>
      <point x="313" y="402"/>
      <point x="347" y="429"/>
      <point x="368" y="429" type="curve" smooth="yes"/>
      <point x="398" y="429"/>
      <point x="417" y="399"/>
    </contour>
  </outline>
</glyph>
<glyph name="z" format="1">
  <advance width="488"/>
  <unicode hex="007A"/>
  <outline>
    <contour>
      <point x="496" y="403" type="curve" smooth="yes"/>
      <point x="496" y="331"/>
      <point x="360" y="239"/>
      <point x="310" y="212" type="curve" smooth="yes"/>
      <point x="245" y="178"/>
      <point x="175" y="152"/>
      <point x="117" y="108" type="curve" smooth="yes"/>
      <point x="114" y="106"/>
      <point x="117" y="100"/>
      <point x="127" y="104" type="curve" smooth="yes"/>
      <point x="144" y="109"/>
      <point x="149" y="110"/>
      <point x="171" y="110" type="curve" smooth="yes"/>
      <point x="248" y="110"/>
      <point x="290" y="50"/>
      <point x="341" y="50" type="curve" smooth="yes"/>
      <point x="367" y="50"/>
      <point x="391" y="62"/>
      <point x="415" y="99" type="curve" smooth="yes"/>
      <point x="428" y="114"/>
      <point x="442" y="92"/>
      <point x="436" y="83" type="curve" smooth="yes"/>
      <point x="397" y="25"/>
      <point x="347" y="-11"/>
      <point x="307" y="-11" type="curve" smooth="yes"/>
      <point x="245" y="-11"/>
      <point x="193" y="65"/>
      <point x="113" y="65" type="curve" smooth="yes"/>
      <point x="71" y="65"/>
      <point x="68" y="48"/>
      <point x="68" y="31" type="curve" smooth="yes"/>
      <point x="68" y="22"/>
      <point x="69" y="12"/>
      <point x="66" y="3" type="curve" smooth="yes"/>
      <point x="58" y="-18"/>
      <point x="17" y="-19"/>
      <point x="17" y="10" type="curve" smooth="yes"/>
      <point x="17" y="26"/>
      <point x="32" y="58"/>
      <point x="50" y="81" type="curve" smooth="yes"/>
      <point x="110" y="160"/>
      <point x="218" y="220"/>
      <point x="301" y="263" type="curve" smooth="yes"/>
      <point x="341" y="284"/>
      <point x="368" y="298"/>
      <point x="388" y="310" type="curve" smooth="yes"/>
      <point x="400" y="318"/>
      <point x="402" y="318"/>
      <point x="410" y="325" type="curve" smooth="yes"/>
      <point x="415" y="329"/>
      <point x="423" y="339"/>
      <point x="413" y="335" type="curve" smooth="yes"/>
      <point x="278" y="278"/>
      <point x="249" y="370"/>
      <point x="167" y="370" type="curve" smooth="yes"/>
      <point x="112" y="370"/>
      <point x="111" y="303"/>
      <point x="82" y="319" type="curve" smooth="yes"/>
      <point x="76" y="323"/>
      <point x="70" y="330"/>
      <point x="76" y="338" type="curve" smooth="yes"/>
      <point x="121" y="399"/>
      <point x="164" y="427"/>
      <point x="213" y="427" type="curve" smooth="yes"/>
      <point x="286" y="427"/>
      <point x="334" y="363"/>
      <point x="394" y="363" type="curve" smooth="yes"/>
      <point x="425" y="363"/>
      <point x="446" y="373"/>
      <point x="451" y="396" type="curve" smooth="yes"/>
      <point x="454" y="411"/>
      <point x="453" y="424"/>
      <point x="474" y="425" type="curve" smooth="yes"/>
      <point x="488" y="426"/>
      <point x="496" y="416"/>
    </contour>
  </outline>
</glyph>
<glyph name="braceleft" format="1">
  <advance width="403"/>
  <unicode hex="007B"/>
  <outline>
    <contour>
      <point x="340" y="-244" type="curve" smooth="yes"/>
      <point x="227" y="-229"/>
      <point x="148" y="-145"/>
      <point x="148" y="-43" type="curve" smooth="yes"/>
      <point x="148" y="9"/>
      <point x="170" y="59"/>
      <point x="170" y="110" type="curve" smooth="yes"/>
      <point x="170" y="157"/>
      <point x="137" y="194"/>
      <point x="73" y="210" type="curve" smooth="yes"/>
      <point x="65" y="212"/>
      <point x="61" y="215"/>
      <point x="61" y="223" type="curve" smooth="yes"/>
      <point x="61" y="234" type="line" smooth="yes"/>
      <point x="61" y="239"/>
      <point x="64" y="242"/>
      <point x="69" y="243" type="curve" smooth="yes"/>
      <point x="132" y="258"/>
      <point x="170" y="297"/>
      <point x="170" y="342" type="curve" smooth="yes"/>
      <point x="170" y="395"/>
      <point x="147" y="444"/>
      <point x="147" y="498" type="curve" smooth="yes"/>
      <point x="147" y="600"/>
      <point x="227" y="684"/>
      <point x="340" y="699" type="curve" smooth="yes"/>
      <point x="359" y="701"/>
      <point x="355" y="672"/>
      <point x="340" y="669" type="curve" smooth="yes"/>
      <point x="268" y="655"/>
      <point x="229" y="613"/>
      <point x="229" y="554" type="curve" smooth="yes"/>
      <point x="229" y="501"/>
      <point x="248" y="449"/>
      <point x="248" y="396" type="curve" smooth="yes"/>
      <point x="248" y="351"/>
      <point x="230" y="311"/>
      <point x="195" y="276" type="curve" smooth="yes"/>
      <point x="173" y="254"/>
      <point x="158" y="244"/>
      <point x="130" y="232" type="curve" smooth="yes"/>
      <point x="120" y="228"/>
      <point x="131" y="223"/>
      <point x="132" y="223" type="curve" smooth="yes"/>
      <point x="207" y="186"/>
      <point x="248" y="129"/>
      <point x="248" y="60" type="curve" smooth="yes"/>
      <point x="248" y="6"/>
      <point x="229" y="-45"/>
      <point x="229" y="-98" type="curve" smooth="yes"/>
      <point x="229" y="-156"/>
      <point x="265" y="-197"/>
      <point x="340" y="-215" type="curve" smooth="yes"/>
      <point x="355" y="-219"/>
      <point x="355" y="-244"/>
    </contour>
  </outline>
</glyph>
<glyph name="bar" format="1">
  <advance width="519"/>
  <unicode hex="007C"/>
  <outline>
    <contour>
      <point x="288" y="7" type="line" smooth="yes"/>
      <point x="288" y="3"/>
      <point x="289" y="-19"/>
      <point x="273" y="-19" type="curve" smooth="yes"/>
      <point x="249" y="-19" type="line" smooth="yes"/>
      <point x="230" y="-19"/>
      <point x="230" y="3"/>
      <point x="230" y="3" type="curve"/>
      <point x="230" y="822" type="line" smooth="yes"/>
      <point x="233" y="838"/>
      <point x="242" y="844"/>
      <point x="248" y="845" type="curve" smooth="yes"/>
      <point x="272" y="845" type="line" smooth="yes"/>
      <point x="282" y="843"/>
      <point x="285" y="846"/>
      <point x="288" y="818" type="curve" smooth="yes"/>
    </contour>
  </outline>
</glyph>
<glyph name="exclamdown" format="1">
  <advance width="297"/>
  <unicode hex="00A1"/>
  <outline>
    <contour>
      <point x="267" y="372" type="curve" smooth="yes"/>
      <point x="267" y="336"/>
      <point x="245" y="308"/>
      <point x="215" y="308" type="curve" smooth="yes"/>
      <point x="180" y="308"/>
      <point x="172" y="337"/>
      <point x="172" y="366" type="curve" smooth="yes"/>
      <point x="175" y="398"/>
      <point x="196" y="425"/>
      <point x="223" y="425" type="curve" smooth="yes"/>
      <point x="250" y="425"/>
      <point x="267" y="402"/>
    </contour>
    <contour>
      <point x="210" y="240" type="curve" smooth="yes"/>
      <point x="152" y="-202" type="line" smooth="yes"/>
      <point x="147" y="-239"/>
      <point x="139" y="-249"/>
      <point x="109" y="-245" type="curve" smooth="yes"/>
      <point x="92" y="-243" type="line" smooth="yes"/>
      <point x="69" y="-240"/>
      <point x="57" y="-240"/>
      <point x="57" y="-220" type="curve" smooth="yes"/>
      <point x="57" y="-215"/>
      <point x="57" y="-209"/>
      <point x="60" y="-201" type="curve" smooth="yes"/>
      <point x="179" y="241" type="line" smooth="yes"/>
      <point x="182" y="254"/>
      <point x="185" y="254"/>
      <point x="194" y="254" type="curve" smooth="yes"/>
      <point x="201" y="254" type="line" smooth="yes"/>
      <point x="212" y="254"/>
      <point x="210" y="245"/>
    </contour>
  </outline>
</glyph>
<glyph name="guillemotleft" format="1">
  <advance width="446"/>
  <unicode hex="00AB"/>
  <outline>
    <contour>
      <point x="450" y="388" type="curve" smooth="yes"/>
      <point x="345" y="226" type="line"/>
      <point x="372" y="71" type="line" smooth="yes"/>
      <point x="373" y="64"/>
      <point x="377" y="59"/>
      <point x="367" y="59" type="curve" smooth="yes"/>
      <point x="342" y="59" type="line"/>
      <point x="271" y="210" type="line" smooth="yes"/>
      <point x="264" y="226"/>
      <point x="266" y="231"/>
      <point x="279" y="245" type="curve" smooth="yes"/>
      <point x="421" y="398" type="line"/>
      <point x="447" y="398" type="line" smooth="yes"/>
      <point x="453" y="398"/>
      <point x="454" y="394"/>
    </contour>
    <contour>
      <point x="316" y="411" type="curve" smooth="yes"/>
      <point x="177" y="226" type="line"/>
      <point x="235" y="43" type="line" smooth="yes"/>
      <point x="237" y="37"/>
      <point x="235" y="35"/>
      <point x="225" y="35" type="curve" smooth="yes"/>
      <point x="204" y="35" type="line"/>
      <point x="107" y="206" type="line" smooth="yes"/>
      <point x="95" y="227"/>
      <point x="97" y="231"/>
      <point x="113" y="247" type="curve" smooth="yes"/>
      <point x="290" y="421" type="line"/>
      <point x="317" y="421" type="line" smooth="yes"/>
      <point x="322" y="421"/>
      <point x="321" y="417"/>
    </contour>
  </outline>
</glyph>
<glyph name="logicalnot" format="1">
  <advance width="679"/>
  <unicode hex="00AC"/>
  <outline>
    <contour>
      <point x="609" y="182" type="line"/>
      <point x="545" y="182" type="line"/>
      <point x="545" y="422" type="line"/>
      <point x="69" y="422" type="line"/>
      <point x="69" y="487" type="line"/>
      <point x="609" y="487" type="line"/>
    </contour>
  </outline>
</glyph>
<glyph name="macron" format="1">
  <advance width="339"/>
  <unicode hex="00AF"/>
  <outline>
    <contour>
      <point x="406" y="576" type="curve" smooth="yes"/>
      <point x="394" y="534" type="line" smooth="yes"/>
      <point x="392" y="531"/>
      <point x="388" y="523"/>
      <point x="375" y="524" type="curve" smooth="yes"/>
      <point x="298" y="522"/>
      <point x="189" y="523"/>
      <point x="112" y="524" type="curve" smooth="yes"/>
      <point x="95" y="527"/>
      <point x="92" y="536"/>
      <point x="93" y="540" type="curve" smooth="yes"/>
      <point x="106" y="583" type="line" smooth="yes"/>
      <point x="112" y="591"/>
      <point x="119" y="593"/>
      <point x="134" y="593" type="curve" smooth="yes"/>
      <point x="198" y="592"/>
      <point x="322" y="591"/>
      <point x="387" y="593" type="curve" smooth="yes"/>
      <point x="399" y="592"/>
      <point x="407" y="589"/>
    </contour>
  </outline>
</glyph>
<glyph name="degree" format="1">
  <advance width="403"/>
  <unicode hex="00B0"/>
  <outline>
    <contour>
      <point x="439" y="506" type="curve" smooth="yes"/>
      <point x="439" y="419"/>
      <point x="370" y="349"/>
      <point x="285" y="349" type="curve" smooth="yes"/>
      <point x="201" y="349"/>
      <point x="131" y="419"/>
      <point x="131" y="506" type="curve" smooth="yes"/>
      <point x="131" y="593"/>
      <point x="201" y="663"/>
      <point x="285" y="663" type="curve" smooth="yes"/>
      <point x="370" y="663"/>
      <point x="439" y="593"/>
    </contour>
    <contour>
      <point x="387" y="506" type="curve" smooth="yes"/>
      <point x="387" y="564"/>
      <point x="341" y="610"/>
      <point x="285" y="610" type="curve" smooth="yes"/>
      <point x="229" y="610"/>
      <point x="183" y="564"/>
      <point x="183" y="506" type="curve" smooth="yes"/>
      <point x="183" y="449"/>
      <point x="229" y="402"/>
      <point x="285" y="402" type="curve" smooth="yes"/>
      <point x="341" y="402"/>
      <point x="387" y="449"/>
    </contour>
  </outline>
</glyph>
<glyph name="plusminus" format="1">
  <advance width="679"/>
  <unicode hex="00B1"/>
  <outline>
    <contour>
      <point x="615" y="401" type="line" smooth="yes"/>
      <point x="615" y="383"/>
      <point x="610" y="383"/>
      <point x="591" y="383" type="curve" smooth="yes"/>
      <point x="388" y="383" type="line" smooth="yes"/>
      <point x="375" y="383"/>
      <point x="373" y="385"/>
      <point x="373" y="372" type="curve" smooth="yes"/>
      <point x="373" y="156" type="line" smooth="yes"/>
      <point x="373" y="136"/>
      <point x="372" y="136"/>
      <point x="352" y="136" type="curve" smooth="yes"/>
      <point x="342" y="133"/>
      <point x="330" y="134"/>
      <point x="321" y="136" type="curve" smooth="yes"/>
      <point x="304" y="136"/>
      <point x="307" y="142"/>
      <point x="307" y="156" type="curve" smooth="yes"/>
      <point x="307" y="370" type="line" smooth="yes"/>
      <point x="307" y="381"/>
      <point x="304" y="383"/>
      <point x="293" y="383" type="curve" smooth="yes"/>
      <point x="86" y="383" type="line" smooth="yes"/>
      <point x="68" y="383"/>
      <point x="65" y="384"/>
      <point x="65" y="402" type="curve" smooth="yes"/>
      <point x="65" y="428" type="line" smooth="yes"/>
      <point x="65" y="445"/>
      <point x="62" y="449"/>
      <point x="82" y="449" type="curve" smooth="yes"/>
      <point x="292" y="449" type="line" smooth="yes"/>
      <point x="305" y="449"/>
      <point x="307" y="451"/>
      <point x="307" y="463" type="curve" smooth="yes"/>
      <point x="307" y="662" type="line" smooth="yes"/>
      <point x="307" y="680"/>
      <point x="304" y="698"/>
      <point x="320" y="698" type="curve" smooth="yes"/>
      <point x="359" y="698" type="line" smooth="yes"/>
      <point x="370" y="698"/>
      <point x="373" y="697"/>
      <point x="373" y="676" type="curve" smooth="yes"/>
      <point x="373" y="460" type="line" smooth="yes"/>
      <point x="372" y="454"/>
      <point x="375" y="448"/>
      <point x="383" y="449" type="curve" smooth="yes"/>
      <point x="595" y="449" type="line" smooth="yes"/>
      <point x="614" y="449"/>
      <point x="615" y="444"/>
      <point x="615" y="432" type="curve" smooth="yes"/>
    </contour>
    <contour>
      <point x="615" y="-10" type="line" smooth="yes"/>
      <point x="615" y="-31"/>
      <point x="602" y="-31"/>
      <point x="582" y="-31" type="curve" smooth="yes"/>
      <point x="468" y="-32"/>
      <point x="204" y="-33"/>
      <point x="92" y="-32" type="curve" smooth="yes"/>
      <point x="65" y="-32"/>
      <point x="65" y="-27"/>
      <point x="65" y="-8" type="curve" smooth="yes"/>
      <point x="65" y="15" type="line" smooth="yes"/>
      <point x="65" y="29"/>
      <point x="66" y="36"/>
      <point x="84" y="35" type="curve" smooth="yes"/>
      <point x="118" y="32"/>
      <point x="420" y="31"/>
      <point x="596" y="35" type="curve" smooth="yes"/>
      <point x="612" y="35"/>
      <point x="615" y="32"/>
      <point x="615" y="16" type="curve" smooth="yes"/>
    </contour>
  </outline>
</glyph>
<glyph name="acute" format="1">
  <advance width="339"/>
  <unicode hex="00B4"/>
  <outline>
    <contour>
      <point x="335" y="638" type="curve" smooth="yes"/>
      <point x="299" y="582"/>
      <point x="244" y="524"/>
      <point x="220" y="501" type="curve" smooth="yes"/>
      <point x="212" y="491"/>
      <point x="195" y="495"/>
      <point x="199" y="508" type="curve" smooth="yes"/>
      <point x="210" y="540"/>
      <point x="232" y="604"/>
      <point x="239" y="646" type="curve" smooth="yes"/>
      <point x="243" y="655"/>
      <point x="253" y="657"/>
      <point x="265" y="658" type="curve" smooth="yes"/>
      <point x="322" y="661" type="line" smooth="yes"/>
      <point x="334" y="664"/>
      <point x="342" y="649"/>
    </contour>
  </outline>
</glyph>
<glyph name="onesuperior" format="1">
  <advance width="318"/>
  <unicode hex="00B9"/>
  <outline>
    <contour>
      <point x="326" y="646" type="curve" smooth="yes"/>
      <point x="261" y="367" type="line" smooth="yes"/>
      <point x="256" y="346"/>
      <point x="268" y="345"/>
      <point x="290" y="344" type="curve" smooth="yes"/>
      <point x="298" y="343"/>
      <point x="305" y="338"/>
      <point x="302" y="328" type="curve" smooth="yes"/>
      <point x="302" y="325"/>
      <point x="298" y="313"/>
      <point x="286" y="314" type="curve" smooth="yes"/>
      <point x="261" y="315"/>
      <point x="196" y="317"/>
      <point x="159" y="315" type="curve" smooth="yes"/>
      <point x="148" y="315"/>
      <point x="135" y="312"/>
      <point x="139" y="329" type="curve" smooth="yes"/>
      <point x="143" y="340"/>
      <point x="146" y="344"/>
      <point x="156" y="344" type="curve" smooth="yes"/>
      <point x="160" y="344"/>
      <point x="164" y="344"/>
      <point x="170" y="344" type="curve" smooth="yes"/>
      <point x="191" y="344"/>
      <point x="195" y="355"/>
      <point x="198" y="368" type="curve" smooth="yes"/>
      <point x="246" y="568" type="line" smooth="yes"/>
      <point x="249" y="581"/>
      <point x="245" y="587"/>
      <point x="237" y="582" type="curve" smooth="yes"/>
      <point x="209" y="565"/>
      <point x="192" y="559"/>
      <point x="165" y="551" type="curve" smooth="yes"/>
      <point x="156" y="548"/>
      <point x="150" y="548"/>
      <point x="152" y="559" type="curve" smooth="yes"/>
      <point x="154" y="569" type="line" smooth="yes"/>
      <point x="156" y="577"/>
      <point x="163" y="580"/>
      <point x="169" y="582" type="curve" smooth="yes"/>
      <point x="210" y="599"/>
      <point x="254" y="626"/>
      <point x="283" y="659" type="curve" smooth="yes"/>
      <point x="287" y="664"/>
      <point x="292" y="668"/>
      <point x="299" y="668" type="curve" smooth="yes"/>
      <point x="315" y="668" type="line" smooth="yes"/>
      <point x="325" y="668"/>
      <point x="329" y="660"/>
    </contour>
  </outline>
</glyph>
<glyph name="onequarter" format="1">
  <advance width="837"/>
  <unicode hex="00BC"/>
  <outline>
    <contour>
      <point x="840" y="126" type="curve" smooth="yes"/>
      <point x="838" y="119"/>
      <point x="842" y="118"/>
      <point x="836" y="106" type="curve" smooth="yes"/>
      <point x="833" y="99"/>
      <point x="826" y="98"/>
      <point x="822" y="98" type="curve" smooth="yes"/>
      <point x="788" y="98" type="line"/>
      <point x="781" y="94"/>
      <point x="777" y="89"/>
      <point x="775" y="81" type="curve" smooth="yes"/>
      <point x="768" y="53"/>
      <point x="762" y="29"/>
      <point x="756" y="2" type="curve" smooth="yes"/>
      <point x="754" y="-7"/>
      <point x="746" y="-10"/>
      <point x="736" y="-10" type="curve" smooth="yes"/>
      <point x="708" y="-10" type="line" smooth="yes"/>
      <point x="699" y="-10"/>
      <point x="691" y="-4"/>
      <point x="694" y="10" type="curve" smooth="yes"/>
      <point x="712" y="85" type="line" smooth="yes"/>
      <point x="714" y="95"/>
      <point x="707" y="97"/>
      <point x="704" y="98" type="curve" smooth="yes"/>
      <point x="676" y="96"/>
      <point x="624" y="97"/>
      <point x="599" y="98" type="curve" smooth="yes"/>
      <point x="590" y="98"/>
      <point x="579" y="99"/>
      <point x="576" y="110" type="curve" smooth="yes"/>
      <point x="572" y="118"/>
      <point x="578" y="128"/>
      <point x="587" y="137" type="curve" smooth="yes"/>
      <point x="791" y="336" type="line" smooth="yes"/>
      <point x="802" y="347"/>
      <point x="808" y="348"/>
      <point x="824" y="348" type="curve" smooth="yes"/>
      <point x="836" y="348"/>
      <point x="836" y="337"/>
      <point x="832" y="321" type="curve" smooth="yes"/>
      <point x="792" y="155" type="line" smooth="yes"/>
      <point x="790" y="146"/>
      <point x="793" y="142"/>
      <point x="796" y="141" type="curve" smooth="yes"/>
      <point x="829" y="141" type="line" smooth="yes"/>
      <point x="835" y="141"/>
      <point x="839" y="137"/>
    </contour>
    <contour>
      <point x="829" y="652" type="curve" smooth="yes"/>
      <point x="216" y="-34" type="line"/>
      <point x="204" y="-38"/>
      <point x="195" y="-33"/>
      <point x="191" y="-29" type="curve" smooth="yes"/>
      <point x="175" y="-25"/>
      <point x="182" y="-9"/>
      <point x="185" y="-5" type="curve" smooth="yes"/>
      <point x="785" y="666" type="line" smooth="yes"/>
      <point x="797" y="683"/>
      <point x="804" y="687"/>
      <point x="819" y="680" type="curve" smooth="yes"/>
      <point x="837" y="675"/>
      <point x="835" y="664"/>
    </contour>
    <contour>
      <point x="358" y="641" type="curve" smooth="yes"/>
      <point x="294" y="362" type="line" smooth="yes"/>
      <point x="289" y="341"/>
      <point x="299" y="338"/>
      <point x="321" y="337" type="curve" smooth="yes"/>
      <point x="329" y="336"/>
      <point x="337" y="333"/>
      <point x="335" y="323" type="curve" smooth="yes"/>
      <point x="334" y="320"/>
      <point x="330" y="308"/>
      <point x="319" y="309" type="curve" smooth="yes"/>
      <point x="294" y="310"/>
      <point x="229" y="312"/>
      <point x="191" y="310" type="curve" smooth="yes"/>
      <point x="181" y="309"/>
      <point x="167" y="306"/>
      <point x="172" y="324" type="curve" smooth="yes"/>
      <point x="175" y="335"/>
      <point x="179" y="338"/>
      <point x="189" y="339" type="curve" smooth="yes"/>
      <point x="193" y="339"/>
      <point x="197" y="339"/>
      <point x="203" y="339" type="curve" smooth="yes"/>
      <point x="223" y="339"/>
      <point x="227" y="350"/>
      <point x="230" y="363" type="curve" smooth="yes"/>
      <point x="278" y="565" type="line" smooth="yes"/>
      <point x="279" y="577"/>
      <point x="274" y="581"/>
      <point x="270" y="579" type="curve" smooth="yes"/>
      <point x="242" y="562"/>
      <point x="225" y="554"/>
      <point x="198" y="545" type="curve" smooth="yes"/>
      <point x="188" y="542"/>
      <point x="182" y="543"/>
      <point x="184" y="554" type="curve" smooth="yes"/>
      <point x="187" y="564" type="line" smooth="yes"/>
      <point x="189" y="571"/>
      <point x="196" y="575"/>
      <point x="201" y="577" type="curve" smooth="yes"/>
      <point x="243" y="594"/>
      <point x="287" y="620"/>
      <point x="316" y="654" type="curve" smooth="yes"/>
      <point x="320" y="659"/>
      <point x="325" y="663"/>
      <point x="332" y="663" type="curve" smooth="yes"/>
      <point x="348" y="663" type="line" smooth="yes"/>
      <point x="358" y="663"/>
      <point x="361" y="655"/>
    </contour>
    <contour>
      <point x="755" y="251" type="line" smooth="yes"/>
      <point x="754" y="254"/>
      <point x="752" y="257"/>
      <point x="746" y="251" type="curve" smooth="yes"/>
      <point x="645" y="149" type="line" smooth="yes"/>
      <point x="642" y="145"/>
      <point x="639" y="142"/>
      <point x="645" y="141" type="curve" smooth="yes"/>
      <point x="667" y="139"/>
      <point x="700" y="141"/>
      <point x="717" y="141" type="curve" smooth="yes"/>
      <point x="724" y="141"/>
      <point x="725" y="144"/>
      <point x="728" y="154" type="curve" smooth="yes"/>
    </contour>
  </outline>
</glyph>
<glyph name="threequarters" format="1">
  <advance width="837"/>
  <unicode hex="00BE"/>
  <outline>
    <contour>
      <point x="840" y="127" type="curve" smooth="yes"/>
      <point x="838" y="120"/>
      <point x="840" y="118"/>
      <point x="834" y="106" type="curve" smooth="yes"/>
      <point x="831" y="99"/>
      <point x="824" y="98"/>
      <point x="820" y="98" type="curve" smooth="yes"/>
      <point x="786" y="98" type="line"/>
      <point x="778" y="94"/>
      <point x="776" y="94"/>
      <point x="773" y="81" type="curve" smooth="yes"/>
      <point x="766" y="53"/>
      <point x="760" y="29"/>
      <point x="754" y="2" type="curve" smooth="yes"/>
      <point x="752" y="-7"/>
      <point x="744" y="-10"/>
      <point x="733" y="-10" type="curve" smooth="yes"/>
      <point x="706" y="-10" type="line" smooth="yes"/>
      <point x="697" y="-10"/>
      <point x="689" y="-4"/>
      <point x="692" y="10" type="curve" smooth="yes"/>
      <point x="710" y="85" type="line" smooth="yes"/>
      <point x="712" y="95"/>
      <point x="705" y="96"/>
      <point x="702" y="97" type="curve" smooth="yes"/>
      <point x="674" y="95"/>
      <point x="622" y="97"/>
      <point x="597" y="98" type="curve" smooth="yes"/>
      <point x="588" y="98"/>
      <point x="577" y="99"/>
      <point x="574" y="110" type="curve" smooth="yes"/>
      <point x="570" y="118"/>
      <point x="576" y="128"/>
      <point x="585" y="137" type="curve" smooth="yes"/>
      <point x="789" y="336" type="line" smooth="yes"/>
      <point x="800" y="347"/>
      <point x="806" y="348"/>
      <point x="821" y="348" type="curve" smooth="yes"/>
      <point x="834" y="348"/>
      <point x="834" y="337"/>
      <point x="830" y="321" type="curve" smooth="yes"/>
      <point x="790" y="155" type="line" smooth="yes"/>
      <point x="788" y="146"/>
      <point x="791" y="142"/>
      <point x="794" y="141" type="curve" smooth="yes"/>
      <point x="827" y="141" type="line" smooth="yes"/>
      <point x="833" y="141"/>
      <point x="839" y="138"/>
    </contour>
    <contour>
      <point x="827" y="652" type="curve" smooth="yes"/>
      <point x="214" y="-34" type="line"/>
      <point x="201" y="-38"/>
      <point x="193" y="-33"/>
      <point x="189" y="-29" type="curve" smooth="yes"/>
      <point x="173" y="-25"/>
      <point x="180" y="-9"/>
      <point x="183" y="-5" type="curve" smooth="yes"/>
      <point x="783" y="666" type="line" smooth="yes"/>
      <point x="794" y="683"/>
      <point x="802" y="687"/>
      <point x="817" y="680" type="curve" smooth="yes"/>
      <point x="835" y="675"/>
      <point x="833" y="664"/>
    </contour>
    <contour>
      <point x="380" y="604" type="curve" smooth="yes"/>
      <point x="380" y="578"/>
      <point x="366" y="558"/>
      <point x="322" y="538" type="curve" smooth="yes"/>
      <point x="317" y="536"/>
      <point x="318" y="532"/>
      <point x="323" y="530" type="curve" smooth="yes"/>
      <point x="355" y="518"/>
      <point x="365" y="498"/>
      <point x="365" y="468" type="curve" smooth="yes"/>
      <point x="365" y="404"/>
      <point x="303" y="340"/>
      <point x="220" y="315" type="curve" smooth="yes"/>
      <point x="198" y="309"/>
      <point x="115" y="297"/>
      <point x="115" y="336" type="curve" smooth="yes"/>
      <point x="115" y="351"/>
      <point x="129" y="361"/>
      <point x="145" y="361" type="curve" smooth="yes"/>
      <point x="155" y="361"/>
      <point x="165" y="356"/>
      <point x="173" y="352" type="curve" smooth="yes"/>
      <point x="183" y="347"/>
      <point x="194" y="343"/>
      <point x="207" y="343" type="curve" smooth="yes"/>
      <point x="229" y="343"/>
      <point x="252" y="356"/>
      <point x="270" y="381" type="curve" smooth="yes"/>
      <point x="288" y="404"/>
      <point x="297" y="430"/>
      <point x="297" y="454" type="curve" smooth="yes"/>
      <point x="297" y="509"/>
      <point x="254" y="500"/>
      <point x="220" y="485" type="curve" smooth="yes"/>
      <point x="207" y="479"/>
      <point x="203" y="482"/>
      <point x="199" y="493" type="curve"/>
      <point x="202" y="507"/>
      <point x="202" y="507"/>
      <point x="214" y="515" type="curve" smooth="yes"/>
      <point x="297" y="557"/>
      <point x="314" y="577"/>
      <point x="314" y="599" type="curve" smooth="yes"/>
      <point x="314" y="615"/>
      <point x="301" y="628"/>
      <point x="281" y="628" type="curve" smooth="yes"/>
      <point x="263" y="628"/>
      <point x="251" y="621"/>
      <point x="230" y="601" type="curve" smooth="yes"/>
      <point x="222" y="593"/>
      <point x="218" y="587"/>
      <point x="206" y="595" type="curve" smooth="yes"/>
      <point x="195" y="603"/>
      <point x="199" y="610"/>
      <point x="205" y="617" type="curve" smooth="yes"/>
      <point x="231" y="648"/>
      <point x="262" y="662"/>
      <point x="298" y="662" type="curve" smooth="yes"/>
      <point x="343" y="662"/>
      <point x="380" y="639"/>
    </contour>
    <contour>
      <point x="754" y="254" type="line" smooth="yes"/>
      <point x="753" y="257"/>
      <point x="750" y="257"/>
      <point x="744" y="251" type="curve" smooth="yes"/>
      <point x="643" y="149" type="line" smooth="yes"/>
      <point x="640" y="145"/>
      <point x="637" y="142"/>
      <point x="643" y="141" type="curve" smooth="yes"/>
      <point x="665" y="139"/>
      <point x="698" y="141"/>
      <point x="715" y="141" type="curve" smooth="yes"/>
      <point x="721" y="141"/>
      <point x="723" y="144"/>
      <point x="726" y="154" type="curve" smooth="yes"/>
    </contour>
  </outline>
</glyph>
<glyph name="Agrave" format="1">
  <advance width="693"/>
  <unicode hex="00C0"/>
  <outline>
    <contour>
      <point x="599" y="723" type="curve" smooth="yes"/>
      <point x="602" y="710"/>
      <point x="581" y="711"/>
      <point x="575" y="718" type="curve" smooth="yes"/>
      <point x="548" y="754"/>
      <point x="495" y="820"/>
      <point x="462" y="854" type="curve" smooth="yes"/>
      <point x="450" y="866"/>
      <point x="467" y="876"/>
      <point x="473" y="876" type="curve" smooth="yes"/>
      <point x="529" y="876" type="line" smooth="yes"/>
      <point x="539" y="876"/>
      <point x="548" y="875"/>
      <point x="555" y="862" type="curve" smooth="yes"/>
      <point x="566" y="840"/>
      <point x="589" y="758"/>
    </contour>
    <contour>
      <point x="676" y="12" type="curve" smooth="yes"/>
      <point x="675" y="1"/>
      <point x="670" y="-5"/>
      <point x="658" y="-4" type="curve" smooth="yes"/>
      <point x="590" y="-1"/>
      <point x="450" y="-3"/>
      <point x="379" y="-4" type="curve" smooth="yes"/>
      <point x="364" y="-4"/>
      <point x="365" y="32"/>
      <point x="383" y="32" type="curve" smooth="yes"/>
      <point x="469" y="32"/>
      <point x="488" y="46"/>
      <point x="488" y="107" type="curve" smooth="yes"/>
      <point x="488" y="262" type="line" smooth="yes"/>
      <point x="489" y="267"/>
      <point x="475" y="275"/>
      <point x="469" y="275" type="curve" smooth="yes"/>
      <point x="415" y="278"/>
      <point x="343" y="277"/>
      <point x="295" y="275" type="curve" smooth="yes"/>
      <point x="285" y="274"/>
      <point x="274" y="269"/>
      <point x="264" y="258" type="curve" smooth="yes"/>
      <point x="149" y="104" type="line" smooth="yes"/>
      <point x="137" y="88"/>
      <point x="134" y="75"/>
      <point x="134" y="65" type="curve" smooth="yes"/>
      <point x="134" y="35"/>
      <point x="159" y="35"/>
      <point x="185" y="33" type="curve" smooth="yes"/>
      <point x="194" y="32"/>
      <point x="203" y="33"/>
      <point x="210" y="33" type="curve" smooth="yes"/>
      <point x="228" y="33"/>
      <point x="224" y="-4"/>
      <point x="206" y="-4" type="curve" smooth="yes"/>
      <point x="137" y="-3"/>
      <point x="40" y="-1"/>
      <point x="-32" y="-3" type="curve" smooth="yes"/>
      <point x="-48" y="-3"/>
      <point x="-47" y="32"/>
      <point x="-24" y="32" type="curve" smooth="yes"/>
      <point x="25" y="40"/>
      <point x="47" y="53"/>
      <point x="98" y="120" type="curve" smooth="yes"/>
      <point x="510" y="656" type="line" smooth="yes"/>
      <point x="517" y="666"/>
      <point x="579" y="670"/>
      <point x="579" y="653" type="curve" smooth="yes"/>
      <point x="584" y="83" type="line" smooth="yes"/>
      <point x="584" y="43"/>
      <point x="606" y="36"/>
      <point x="629" y="33" type="curve" smooth="yes"/>
      <point x="637" y="32"/>
      <point x="647" y="34"/>
      <point x="656" y="34" type="curve" smooth="yes"/>
      <point x="659" y="34"/>
      <point x="661" y="34"/>
      <point x="663" y="34" type="curve" smooth="yes"/>
      <point x="673" y="33"/>
      <point x="678" y="23"/>
    </contour>
    <contour>
      <point x="490" y="343" type="curve" smooth="yes"/>
      <point x="490" y="538" type="line" smooth="yes"/>
      <point x="490" y="561"/>
      <point x="483" y="552"/>
      <point x="480" y="549" type="curve" smooth="yes"/>
      <point x="435" y="492"/>
      <point x="370" y="395"/>
      <point x="331" y="347" type="curve" smooth="yes"/>
      <point x="328" y="343"/>
      <point x="325" y="328"/>
      <point x="336" y="328" type="curve" smooth="yes"/>
      <point x="373" y="330"/>
      <point x="438" y="329"/>
      <point x="470" y="328" type="curve" smooth="yes"/>
      <point x="476" y="328"/>
      <point x="490" y="331"/>
    </contour>
  </outline>
</glyph>
<glyph name="Igrave" format="1">
  <advance width="355"/>
  <unicode hex="00CC"/>
  <outline>
    <contour>
      <point x="336" y="723" type="curve" smooth="yes"/>
      <point x="340" y="710"/>
      <point x="319" y="711"/>
      <point x="313" y="718" type="curve" smooth="yes"/>
      <point x="286" y="754"/>
      <point x="233" y="820"/>
      <point x="200" y="854" type="curve" smooth="yes"/>
      <point x="188" y="866"/>
      <point x="204" y="876"/>
      <point x="211" y="876" type="curve" smooth="yes"/>
      <point x="267" y="876" type="line" smooth="yes"/>
      <point x="276" y="876"/>
      <point x="285" y="875"/>
      <point x="292" y="862" type="curve" smooth="yes"/>
      <point x="304" y="840"/>
      <point x="326" y="758"/>
    </contour>
    <contour>
      <point x="417" y="646" type="curve" smooth="yes"/>
      <point x="437" y="646"/>
      <point x="425" y="614"/>
      <point x="415" y="613" type="curve" smooth="yes"/>
      <point x="412" y="612"/>
      <point x="408" y="611"/>
      <point x="404" y="612" type="curve" smooth="yes"/>
      <point x="344" y="609"/>
      <point x="331" y="600"/>
      <point x="316" y="529" type="curve" smooth="yes"/>
      <point x="228" y="114" type="line" smooth="yes"/>
      <point x="226" y="103"/>
      <point x="223" y="93"/>
      <point x="223" y="82" type="curve" smooth="yes"/>
      <point x="223" y="34"/>
      <point x="256" y="32"/>
      <point x="302" y="33" type="curve" smooth="yes"/>
      <point x="320" y="33"/>
      <point x="314" y="-2"/>
      <point x="300" y="-3" type="curve" smooth="yes"/>
      <point x="215" y="0"/>
      <point x="119" y="0"/>
      <point x="34" y="-3" type="curve" smooth="yes"/>
      <point x="15" y="-4"/>
      <point x="22" y="34"/>
      <point x="39" y="34" type="curve" smooth="yes"/>
      <point x="104" y="33"/>
      <point x="120" y="55"/>
      <point x="133" y="116" type="curve" smooth="yes"/>
      <point x="220" y="532" type="line" smooth="yes"/>
      <point x="224" y="553"/>
      <point x="226" y="566"/>
      <point x="226" y="574" type="curve" smooth="yes"/>
      <point x="226" y="599"/>
      <point x="209" y="607"/>
      <point x="167" y="609" type="curve" smooth="yes"/>
      <point x="163" y="609"/>
      <point x="154" y="609"/>
      <point x="150" y="610" type="curve" smooth="yes"/>
      <point x="136" y="614"/>
      <point x="140" y="631"/>
      <point x="147" y="640" type="curve" smooth="yes"/>
      <point x="152" y="647"/>
      <point x="155" y="646"/>
      <point x="165" y="646" type="curve" smooth="yes"/>
      <point x="240" y="645"/>
      <point x="348" y="644"/>
    </contour>
  </outline>
</glyph>
<glyph name="Eth" format="1">
  <advance width="773"/>
  <unicode hex="00D0"/>
  <outline>
    <contour>
      <point x="781" y="357" type="curve" smooth="yes"/>
      <point x="781" y="155"/>
      <point x="608" y="-2"/>
      <point x="388" y="-3" type="curve" smooth="yes"/>
      <point x="300" y="-3"/>
      <point x="127" y="-5"/>
      <point x="43" y="-4" type="curve" smooth="yes"/>
      <point x="37" y="-4"/>
      <point x="29" y="-1"/>
      <point x="31" y="8" type="curve" smooth="yes"/>
      <point x="35" y="28"/>
      <point x="34" y="30"/>
      <point x="51" y="30" type="curve" smooth="yes"/>
      <point x="109" y="30"/>
      <point x="122" y="41"/>
      <point x="139" y="128" type="curve" smooth="yes"/>
      <point x="166" y="269" type="line" smooth="yes"/>
      <point x="169" y="285"/>
      <point x="165" y="290"/>
      <point x="151" y="290" type="curve" smooth="yes"/>
      <point x="74" y="290" type="line" smooth="yes"/>
      <point x="58" y="290"/>
      <point x="57" y="297"/>
      <point x="60" y="309" type="curve" smooth="yes"/>
      <point x="67" y="341" type="line" smooth="yes"/>
      <point x="68" y="350"/>
      <point x="66" y="355"/>
      <point x="85" y="355" type="curve" smooth="yes"/>
      <point x="172" y="355" type="line" smooth="yes"/>
      <point x="186" y="355"/>
      <point x="185" y="361"/>
      <point x="188" y="374" type="curve" smooth="yes"/>
      <point x="219" y="532" type="line" smooth="yes"/>
      <point x="228" y="579"/>
      <point x="234" y="614"/>
      <point x="168" y="614" type="curve" smooth="yes"/>
      <point x="162" y="614"/>
      <point x="132" y="609"/>
      <point x="135" y="623" type="curve" smooth="yes"/>
      <point x="138" y="638" type="line" smooth="yes"/>
      <point x="140" y="646"/>
      <point x="147" y="646"/>
      <point x="156" y="646" type="curve" smooth="yes"/>
      <point x="444" y="646" type="line" smooth="yes"/>
      <point x="646" y="646"/>
      <point x="781" y="533"/>
    </contour>
    <contour>
      <point x="679" y="363" type="curve" smooth="yes"/>
      <point x="679" y="461"/>
      <point x="634" y="538"/>
      <point x="552" y="579" type="curve" smooth="yes"/>
      <point x="507" y="602"/>
      <point x="464" y="609"/>
      <point x="375" y="609" type="curve" smooth="yes"/>
      <point x="338" y="609"/>
      <point x="327" y="612"/>
      <point x="323" y="594" type="curve" smooth="yes"/>
      <point x="279" y="376" type="line" smooth="yes"/>
      <point x="276" y="361"/>
      <point x="276" y="355"/>
      <point x="293" y="355" type="curve" smooth="yes"/>
      <point x="422" y="355" type="line" smooth="yes"/>
      <point x="437" y="355"/>
      <point x="436" y="349"/>
      <point x="434" y="339" type="curve" smooth="yes"/>
      <point x="428" y="306" type="line" smooth="yes"/>
      <point x="425" y="289"/>
      <point x="420" y="290"/>
      <point x="410" y="290" type="curve" smooth="yes"/>
      <point x="279" y="290" type="line" smooth="yes"/>
      <point x="261" y="290"/>
      <point x="262" y="284"/>
      <point x="259" y="273" type="curve" smooth="yes"/>
      <point x="249" y="231"/>
      <point x="225" y="130"/>
      <point x="225" y="88" type="curve" smooth="yes"/>
      <point x="225" y="48"/>
      <point x="245" y="35"/>
      <point x="328" y="35" type="curve" smooth="yes"/>
      <point x="380" y="35"/>
      <point x="434" y="42"/>
      <point x="468" y="53" type="curve" smooth="yes"/>
      <point x="591" y="94"/>
      <point x="679" y="223"/>
    </contour>
  </outline>
</glyph>
<glyph name="Ntilde" format="1">
  <advance width="790"/>
  <unicode hex="00D1"/>
  <outline>
    <contour>
      <point x="858" y="646" type="curve" smooth="yes"/>
      <point x="877" y="647"/>
      <point x="866" y="616"/>
      <point x="853" y="614" type="curve" smooth="yes"/>
      <point x="793" y="606"/>
      <point x="766" y="580"/>
      <point x="752" y="512" type="curve" smooth="yes"/>
      <point x="642" y="-8" type="line" smooth="yes"/>
      <point x="640" y="-18"/>
      <point x="611" y="-16"/>
      <point x="605" y="-10" type="curve" smooth="yes"/>
      <point x="256" y="517" type="line" smooth="yes"/>
      <point x="254" y="520"/>
      <point x="245" y="516"/>
      <point x="241" y="496" type="curve" smooth="yes"/>
      <point x="172" y="143" type="line" smooth="yes"/>
      <point x="169" y="129"/>
      <point x="168" y="114"/>
      <point x="168" y="102" type="curve" smooth="yes"/>
      <point x="168" y="58"/>
      <point x="183" y="39"/>
      <point x="239" y="32" type="curve"/>
      <point x="246" y="32" type="line" smooth="yes"/>
      <point x="263" y="32"/>
      <point x="256" y="-6"/>
      <point x="242" y="-3" type="curve" smooth="yes"/>
      <point x="189" y="-1"/>
      <point x="78" y="0"/>
      <point x="18" y="-3" type="curve" smooth="yes"/>
      <point x="2" y="-4"/>
      <point x="8" y="32"/>
      <point x="22" y="31" type="curve" smooth="yes"/>
      <point x="84" y="40"/>
      <point x="106" y="60"/>
      <point x="122" y="138" type="curve" smooth="yes"/>
      <point x="212" y="583" type="line"/>
      <point x="191" y="611"/>
      <point x="158" y="607"/>
      <point x="127" y="611" type="curve" smooth="yes"/>
      <point x="113" y="611"/>
      <point x="119" y="648"/>
      <point x="132" y="647" type="curve" smooth="yes"/>
      <point x="168" y="646"/>
      <point x="216" y="645"/>
      <point x="248" y="646" type="curve" smooth="yes"/>
      <point x="268" y="646"/>
      <point x="278" y="644"/>
      <point x="283" y="636" type="curve" smooth="yes"/>
      <point x="614" y="144" type="line" smooth="yes"/>
      <point x="619" y="137"/>
      <point x="629" y="130"/>
      <point x="631" y="137" type="curve" smooth="yes"/>
      <point x="711" y="514" type="line" smooth="yes"/>
      <point x="714" y="530"/>
      <point x="716" y="542"/>
      <point x="716" y="553" type="curve" smooth="yes"/>
      <point x="716" y="594"/>
      <point x="694" y="610"/>
      <point x="632" y="613" type="curve" smooth="yes"/>
      <point x="621" y="614"/>
      <point x="623" y="646"/>
      <point x="638" y="646" type="curve" smooth="yes"/>
      <point x="695" y="644"/>
      <point x="806" y="645"/>
    </contour>
    <contour>
      <point x="718" y="846" type="curve" smooth="yes"/>
      <point x="719" y="840"/>
      <point x="718" y="836"/>
      <point x="717" y="833" type="curve" smooth="yes"/>
      <point x="702" y="762"/>
      <point x="650" y="717"/>
      <point x="592" y="717" type="curve" smooth="yes"/>
      <point x="565" y="717"/>
      <point x="536" y="730"/>
      <point x="503" y="756" type="curve" smooth="yes"/>
      <point x="472" y="782"/>
      <point x="463" y="785"/>
      <point x="450" y="785" type="curve" smooth="yes"/>
      <point x="431" y="785"/>
      <point x="419" y="774"/>
      <point x="403" y="738" type="curve" smooth="yes"/>
      <point x="403" y="734"/>
      <point x="400" y="730"/>
      <point x="397" y="720" type="curve" smooth="yes"/>
      <point x="391" y="712"/>
      <point x="369" y="707"/>
      <point x="370" y="720" type="curve" smooth="yes"/>
      <point x="392" y="806"/>
      <point x="435" y="847"/>
      <point x="496" y="847" type="curve" smooth="yes"/>
      <point x="526" y="847"/>
      <point x="547" y="838"/>
      <point x="586" y="807" type="curve" smooth="yes"/>
      <point x="612" y="786"/>
      <point x="627" y="780"/>
      <point x="639" y="780" type="curve" smooth="yes"/>
      <point x="660" y="780"/>
      <point x="674" y="792"/>
      <point x="693" y="846" type="curve" smooth="yes"/>
      <point x="694" y="850"/>
      <point x="701" y="852"/>
      <point x="707" y="852" type="curve" smooth="yes"/>
      <point x="714" y="853"/>
      <point x="719" y="850"/>
    </contour>
  </outline>
</glyph>
<glyph name="Ograve" format="1">
  <advance width="819"/>
  <unicode hex="00D2"/>
  <outline>
    <contour>
      <point x="575" y="723" type="curve" smooth="yes"/>
      <point x="579" y="710"/>
      <point x="558" y="711"/>
      <point x="552" y="718" type="curve" smooth="yes"/>
      <point x="525" y="754"/>
      <point x="472" y="820"/>
      <point x="439" y="854" type="curve" smooth="yes"/>
      <point x="427" y="866"/>
      <point x="443" y="876"/>
      <point x="450" y="876" type="curve" smooth="yes"/>
      <point x="506" y="876" type="line" smooth="yes"/>
      <point x="515" y="876"/>
      <point x="524" y="875"/>
      <point x="531" y="862" type="curve" smooth="yes"/>
      <point x="543" y="840"/>
      <point x="566" y="758"/>
    </contour>
    <contour>
      <point x="776" y="357" type="curve" smooth="yes"/>
      <point x="776" y="150"/>
      <point x="600" y="-18"/>
      <point x="383" y="-18" type="curve" smooth="yes"/>
      <point x="209" y="-18"/>
      <point x="85" y="115"/>
      <point x="85" y="288" type="curve" smooth="yes"/>
      <point x="85" y="491"/>
      <point x="264" y="662"/>
      <point x="475" y="662" type="curve" smooth="yes"/>
      <point x="649" y="662"/>
      <point x="776" y="529"/>
    </contour>
    <contour>
      <point x="676" y="388" type="curve" smooth="yes"/>
      <point x="676" y="528"/>
      <point x="598" y="624"/>
      <point x="476" y="623" type="curve" smooth="yes"/>
      <point x="286" y="622"/>
      <point x="185" y="437"/>
      <point x="185" y="262" type="curve" smooth="yes"/>
      <point x="185" y="113"/>
      <point x="258" y="22"/>
      <point x="384" y="21" type="curve" smooth="yes"/>
      <point x="546" y="19"/>
      <point x="676" y="179"/>
    </contour>
  </outline>
</glyph>
<glyph name="Otilde" format="1">
  <advance width="819"/>
  <unicode hex="00D5"/>
  <outline>
    <contour>
      <point x="776" y="357" type="curve" smooth="yes"/>
      <point x="776" y="150"/>
      <point x="600" y="-18"/>
      <point x="383" y="-18" type="curve" smooth="yes"/>
      <point x="209" y="-18"/>
      <point x="85" y="115"/>
      <point x="85" y="288" type="curve" smooth="yes"/>
      <point x="85" y="491"/>
      <point x="264" y="662"/>
      <point x="475" y="662" type="curve" smooth="yes"/>
      <point x="649" y="662"/>
      <point x="776" y="529"/>
    </contour>
    <contour>
      <point x="676" y="388" type="curve" smooth="yes"/>
      <point x="676" y="528"/>
      <point x="598" y="624"/>
      <point x="476" y="623" type="curve" smooth="yes"/>
      <point x="286" y="622"/>
      <point x="185" y="437"/>
      <point x="185" y="262" type="curve" smooth="yes"/>
      <point x="185" y="113"/>
      <point x="258" y="22"/>
      <point x="384" y="21" type="curve" smooth="yes"/>
      <point x="546" y="19"/>
      <point x="676" y="179"/>
    </contour>
    <contour>
      <point x="692" y="849" type="curve" smooth="yes"/>
      <point x="693" y="843"/>
      <point x="692" y="839"/>
      <point x="691" y="836" type="curve" smooth="yes"/>
      <point x="676" y="765"/>
      <point x="624" y="720"/>
      <point x="566" y="720" type="curve" smooth="yes"/>
      <point x="539" y="720"/>
      <point x="509" y="733"/>
      <point x="477" y="759" type="curve" smooth="yes"/>
      <point x="446" y="785"/>
      <point x="437" y="788"/>
      <point x="424" y="788" type="curve" smooth="yes"/>
      <point x="405" y="788"/>
      <point x="393" y="777"/>
      <point x="377" y="741" type="curve" smooth="yes"/>
      <point x="377" y="737"/>
      <point x="374" y="733"/>
      <point x="371" y="723" type="curve" smooth="yes"/>
      <point x="365" y="715"/>
      <point x="343" y="710"/>
      <point x="344" y="723" type="curve" smooth="yes"/>
      <point x="366" y="809"/>
      <point x="409" y="850"/>
      <point x="470" y="850" type="curve" smooth="yes"/>
      <point x="500" y="850"/>
      <point x="521" y="841"/>
      <point x="560" y="810" type="curve" smooth="yes"/>
      <point x="586" y="789"/>
      <point x="601" y="783"/>
      <point x="613" y="783" type="curve" smooth="yes"/>
      <point x="634" y="783"/>
      <point x="648" y="795"/>
      <point x="667" y="849" type="curve" smooth="yes"/>
      <point x="668" y="853"/>
      <point x="675" y="855"/>
      <point x="681" y="855" type="curve" smooth="yes"/>
      <point x="688" y="856"/>
      <point x="693" y="853"/>
    </contour>
  </outline>
</glyph>
<glyph name="Ucircumflex" format="1">
  <advance width="748"/>
  <unicode hex="00DB"/>
  <outline>
    <contour>
      <point x="615" y="724" type="line" smooth="yes"/>
      <point x="617" y="714"/>
      <point x="599" y="717"/>
      <point x="595" y="724" type="curve" smooth="yes"/>
      <point x="522" y="810" type="line" smooth="yes"/>
      <point x="519" y="815"/>
      <point x="514" y="818"/>
      <point x="506" y="813" type="curve" smooth="yes"/>
      <point x="364" y="724" type="line" smooth="yes"/>
      <point x="350" y="715"/>
      <point x="321" y="709"/>
      <point x="346" y="734" type="curve" smooth="yes"/>
      <point x="488" y="877" type="line" smooth="yes"/>
      <point x="496" y="883"/>
      <point x="499" y="886"/>
      <point x="511" y="886" type="curve" smooth="yes"/>
      <point x="559" y="886" type="line" smooth="yes"/>
      <point x="566" y="886"/>
      <point x="577" y="884"/>
      <point x="579" y="875" type="curve" smooth="yes"/>
    </contour>
    <contour>
      <point x="788" y="648" type="curve" smooth="yes"/>
      <point x="806" y="650"/>
      <point x="801" y="611"/>
      <point x="783" y="614" type="curve"/>
      <point x="728" y="607"/>
      <point x="706" y="596"/>
      <point x="689" y="507" type="curve" smooth="yes"/>
      <point x="638" y="236" type="line" smooth="yes"/>
      <point x="627" y="176"/>
      <point x="617" y="147"/>
      <point x="594" y="110" type="curve" smooth="yes"/>
      <point x="537" y="17"/>
      <point x="451" y="-18"/>
      <point x="343" y="-18" type="curve" smooth="yes"/>
      <point x="226" y="-18"/>
      <point x="161" y="15"/>
      <point x="115" y="84" type="curve" smooth="yes"/>
      <point x="74" y="147"/>
      <point x="81" y="204"/>
      <point x="96" y="272" type="curve" smooth="yes"/>
      <point x="151" y="527" type="line" smooth="yes"/>
      <point x="156" y="549"/>
      <point x="157" y="560"/>
      <point x="157" y="568" type="curve" smooth="yes"/>
      <point x="157" y="599"/>
      <point x="136" y="612"/>
      <point x="95" y="612" type="curve" smooth="yes"/>
      <point x="78" y="612" type="line" smooth="yes"/>
      <point x="63" y="612"/>
      <point x="70" y="650"/>
      <point x="85" y="648" type="curve" smooth="yes"/>
      <point x="155" y="646"/>
      <point x="288" y="645"/>
      <point x="348" y="648" type="curve" smooth="yes"/>
      <point x="356" y="648"/>
      <point x="362" y="645"/>
      <point x="362" y="636" type="curve" smooth="yes"/>
      <point x="361" y="629"/>
      <point x="357" y="609"/>
      <point x="348" y="610" type="curve" smooth="yes"/>
      <point x="274" y="614"/>
      <point x="265" y="602"/>
      <point x="249" y="529" type="curve" smooth="yes"/>
      <point x="192" y="266" type="line" smooth="yes"/>
      <point x="184" y="229"/>
      <point x="180" y="195"/>
      <point x="180" y="169" type="curve" smooth="yes"/>
      <point x="180" y="80"/>
      <point x="242" y="19"/>
      <point x="360" y="19" type="curve" smooth="yes"/>
      <point x="518" y="19"/>
      <point x="572" y="114"/>
      <point x="597" y="248" type="curve" smooth="yes"/>
      <point x="647" y="515" type="line" smooth="yes"/>
      <point x="650" y="531"/>
      <point x="651" y="541"/>
      <point x="651" y="551" type="curve" smooth="yes"/>
      <point x="651" y="610"/>
      <point x="609" y="614"/>
      <point x="563" y="614" type="curve" smooth="yes"/>
      <point x="547" y="614"/>
      <point x="556" y="652"/>
      <point x="570" y="648" type="curve"/>
      <point x="603" y="648"/>
      <point x="642" y="646"/>
      <point x="685" y="648" type="curve" smooth="yes"/>
      <point x="728" y="649"/>
      <point x="743" y="648"/>
      <point x="771" y="648" type="curve" smooth="yes"/>
      <point x="776" y="650"/>
      <point x="783" y="648"/>
    </contour>
  </outline>
</glyph>
<glyph name="acircumflex" format="1">
  <advance width="420"/>
  <unicode hex="00E2"/>
  <outline>
    <contour>
      <point x="395" y="93" type="curve" smooth="yes"/>
      <point x="396" y="88"/>
      <point x="395" y="85"/>
      <point x="390" y="80" type="curve" smooth="yes"/>
      <point x="381" y="70"/>
      <point x="361" y="49"/>
      <point x="340" y="28" type="curve" smooth="yes"/>
      <point x="319" y="8"/>
      <point x="295" y="-12"/>
      <point x="278" y="-12" type="curve" smooth="yes"/>
      <point x="250" y="-12"/>
      <point x="243" y="17"/>
      <point x="244" y="46" type="curve" smooth="yes"/>
      <point x="244" y="65"/>
      <point x="248" y="83"/>
      <point x="252" y="101" type="curve" smooth="yes"/>
      <point x="253" y="106"/>
      <point x="251" y="113"/>
      <point x="247" y="109" type="curve" smooth="yes"/>
      <point x="221" y="81"/>
      <point x="133" y="-12"/>
      <point x="96" y="-12" type="curve" smooth="yes"/>
      <point x="59" y="-12"/>
      <point x="32" y="44"/>
      <point x="32" y="99" type="curve" smooth="yes"/>
      <point x="32" y="202"/>
      <point x="111" y="323"/>
      <point x="217" y="385" type="curve" smooth="yes"/>
      <point x="270" y="416"/>
      <point x="319" y="427"/>
      <point x="378" y="428" type="curve" smooth="yes"/>
      <point x="383" y="428"/>
      <point x="386" y="422"/>
      <point x="386" y="413" type="curve" smooth="yes"/>
      <point x="329" y="121" type="line" smooth="yes"/>
      <point x="323" y="91"/>
      <point x="321" y="75"/>
      <point x="321" y="69" type="curve" smooth="yes"/>
      <point x="321" y="52"/>
      <point x="336" y="68"/>
      <point x="342" y="73" type="curve" smooth="yes"/>
      <point x="354" y="83"/>
      <point x="364" y="95"/>
      <point x="374" y="107" type="curve"/>
      <point x="380" y="122"/>
      <point x="394" y="106"/>
    </contour>
    <contour>
      <point x="303" y="355" type="line" smooth="yes"/>
      <point x="304" y="362"/>
      <point x="300" y="364"/>
      <point x="294" y="363" type="curve" smooth="yes"/>
      <point x="253" y="358"/>
      <point x="223" y="345"/>
      <point x="197" y="327" type="curve" smooth="yes"/>
      <point x="141" y="289"/>
      <point x="105" y="206"/>
      <point x="105" y="120" type="curve" smooth="yes"/>
      <point x="105" y="76"/>
      <point x="120" y="52"/>
      <point x="132" y="52" type="curve" smooth="yes"/>
      <point x="144" y="52"/>
      <point x="248" y="151"/>
      <point x="264" y="167" type="curve"/>
    </contour>
    <contour>
      <point x="435" y="500" type="line" smooth="yes"/>
      <point x="439" y="490"/>
      <point x="419" y="493"/>
      <point x="416" y="500" type="curve" smooth="yes"/>
      <point x="398" y="521"/>
      <point x="361" y="567"/>
      <point x="352" y="577" type="curve" smooth="yes"/>
      <point x="347" y="582"/>
      <point x="330" y="589"/>
      <point x="321" y="583" type="curve" smooth="yes"/>
      <point x="185" y="500" type="line" smooth="yes"/>
      <point x="171" y="491"/>
      <point x="142" y="485"/>
      <point x="168" y="511" type="curve" smooth="yes"/>
      <point x="309" y="650" type="line" smooth="yes"/>
      <point x="317" y="657"/>
      <point x="320" y="658"/>
      <point x="332" y="660" type="curve" smooth="yes"/>
      <point x="372" y="660" type="line" smooth="yes"/>
      <point x="379" y="660"/>
      <point x="389" y="657"/>
      <point x="392" y="648" type="curve" smooth="yes"/>
    </contour>
  </outline>
</glyph>
<glyph name="ae" format="1">
  <advance width="583"/>
  <unicode hex="00E6"/>
  <outline>
    <contour>
      <point x="597" y="350" type="curve" smooth="yes"/>
      <point x="597" y="303"/>
      <point x="559" y="260"/>
      <point x="496" y="233" type="curve" smooth="yes"/>
      <point x="453" y="214"/>
      <point x="407" y="197"/>
      <point x="371" y="188" type="curve" smooth="yes"/>
      <point x="368" y="187"/>
      <point x="360" y="185"/>
      <point x="359" y="178" type="curve" smooth="yes"/>
      <point x="354" y="153"/>
      <point x="353" y="144"/>
      <point x="353" y="123" type="curve" smooth="yes"/>
      <point x="353" y="70"/>
      <point x="383" y="34"/>
      <point x="421" y="34" type="curve" smooth="yes"/>
      <point x="447" y="34"/>
      <point x="471" y="47"/>
      <point x="527" y="82" type="curve" smooth="yes"/>
      <point x="532" y="85"/>
      <point x="538" y="82"/>
      <point x="541" y="79" type="curve" smooth="yes"/>
      <point x="549" y="72" type="line" smooth="yes"/>
      <point x="553" y="67"/>
      <point x="551" y="60"/>
      <point x="546" y="56" type="curve" smooth="yes"/>
      <point x="476" y="9"/>
      <point x="416" y="-14"/>
      <point x="375" y="-14" type="curve" smooth="yes"/>
      <point x="323" y="-14"/>
      <point x="283" y="36"/>
      <point x="277" y="98" type="curve" smooth="yes"/>
      <point x="277" y="105"/>
      <point x="274" y="112"/>
      <point x="267" y="106" type="curve" smooth="yes"/>
      <point x="230" y="71"/>
      <point x="140" y="-13"/>
      <point x="108" y="-13" type="curve" smooth="yes"/>
      <point x="99" y="-13"/>
      <point x="89" y="-9"/>
      <point x="79" y="-1" type="curve" smooth="yes"/>
      <point x="51" y="21"/>
      <point x="37" y="59"/>
      <point x="37" y="104" type="curve" smooth="yes"/>
      <point x="37" y="268"/>
      <point x="208" y="424"/>
      <point x="387" y="424" type="curve" smooth="yes"/>
      <point x="397" y="424"/>
      <point x="402" y="416"/>
      <point x="401" y="408" type="curve" smooth="yes"/>
      <point x="396" y="387" type="line" smooth="yes"/>
      <point x="393" y="376"/>
      <point x="404" y="381"/>
      <point x="408" y="385" type="curve" smooth="yes"/>
      <point x="442" y="413"/>
      <point x="472" y="425"/>
      <point x="510" y="425" type="curve" smooth="yes"/>
      <point x="559" y="425"/>
      <point x="597" y="394"/>
    </contour>
    <contour>
      <point x="531" y="348" type="curve" smooth="yes"/>
      <point x="531" y="374"/>
      <point x="514" y="392"/>
      <point x="491" y="392" type="curve" smooth="yes"/>
      <point x="440" y="392"/>
      <point x="396" y="337"/>
      <point x="369" y="228" type="curve" smooth="yes"/>
      <point x="367" y="220"/>
      <point x="379" y="220"/>
      <point x="384" y="222" type="curve" smooth="yes"/>
      <point x="419" y="232"/>
      <point x="459" y="249"/>
      <point x="488" y="270" type="curve" smooth="yes"/>
      <point x="514" y="288"/>
      <point x="531" y="320"/>
    </contour>
    <contour>
      <point x="318" y="341" type="line" smooth="yes"/>
      <point x="320" y="352"/>
      <point x="320" y="367"/>
      <point x="314" y="366" type="curve" smooth="yes"/>
      <point x="270" y="360"/>
      <point x="250" y="353"/>
      <point x="219" y="335" type="curve" smooth="yes"/>
      <point x="153" y="295"/>
      <point x="111" y="217"/>
      <point x="111" y="130" type="curve" smooth="yes"/>
      <point x="111" y="77"/>
      <point x="127" y="49"/>
      <point x="142" y="49" type="curve" smooth="yes"/>
      <point x="163" y="49"/>
      <point x="199" y="76"/>
      <point x="281" y="159" type="curve"/>
    </contour>
  </outline>
</glyph>
<glyph name="icircumflex" format="1">
  <advance width="258"/>
  <unicode hex="00EE"/>
  <outline>
    <contour>
      <point x="225" y="88" type="curve" smooth="yes"/>
      <point x="203" y="60"/>
      <point x="138" y="-11"/>
      <point x="99" y="-11" type="curve" smooth="yes"/>
      <point x="56" y="-10"/>
      <point x="67" y="51"/>
      <point x="71" y="71" type="curve" smooth="yes"/>
      <point x="122" y="322" type="line" smooth="yes"/>
      <point x="126" y="340"/>
      <point x="129" y="358"/>
      <point x="117" y="348" type="curve" smooth="yes"/>
      <point x="104" y="336"/>
      <point x="81" y="310"/>
      <point x="76" y="304" type="curve" smooth="yes"/>
      <point x="67" y="292"/>
      <point x="49" y="317"/>
      <point x="60" y="331" type="curve" smooth="yes"/>
      <point x="110" y="394"/>
      <point x="158" y="432"/>
      <point x="182" y="432" type="curve" smooth="yes"/>
      <point x="215" y="431"/>
      <point x="207" y="386"/>
      <point x="203" y="367" type="curve" smooth="yes"/>
      <point x="146" y="80" type="line" smooth="yes"/>
      <point x="143" y="65"/>
      <point x="144" y="52"/>
      <point x="155" y="62" type="curve" smooth="yes"/>
      <point x="169" y="72"/>
      <point x="196" y="102"/>
      <point x="204" y="114" type="curve" smooth="yes"/>
      <point x="218" y="133"/>
      <point x="233" y="97"/>
    </contour>
    <contour>
      <point x="303" y="499" type="line" smooth="yes"/>
      <point x="307" y="489"/>
      <point x="287" y="492"/>
      <point x="284" y="499" type="curve" smooth="yes"/>
      <point x="221" y="585" type="line" smooth="yes"/>
      <point x="218" y="590"/>
      <point x="213" y="594"/>
      <point x="204" y="588" type="curve" smooth="yes"/>
      <point x="73" y="499" type="line" smooth="yes"/>
      <point x="59" y="490"/>
      <point x="32" y="483"/>
      <point x="56" y="510" type="curve" smooth="yes"/>
      <point x="186" y="652" type="line" smooth="yes"/>
      <point x="194" y="659"/>
      <point x="197" y="660"/>
      <point x="209" y="662" type="curve" smooth="yes"/>
      <point x="249" y="662" type="line" smooth="yes"/>
      <point x="256" y="662"/>
      <point x="267" y="659"/>
      <point x="269" y="650" type="curve" smooth="yes"/>
    </contour>
  </outline>
</glyph>
<glyph name="ntilde" format="1">
  <advance width="469"/>
  <unicode hex="00F1"/>
  <outline>
    <contour>
      <point x="475" y="625" type="curve" smooth="yes"/>
      <point x="476" y="619"/>
      <point x="475" y="615"/>
      <point x="475" y="612" type="curve" smooth="yes"/>
      <point x="460" y="541"/>
      <point x="407" y="496"/>
      <point x="349" y="496" type="curve" smooth="yes"/>
      <point x="322" y="496"/>
      <point x="293" y="509"/>
      <point x="261" y="535" type="curve" smooth="yes"/>
      <point x="229" y="561"/>
      <point x="221" y="564"/>
      <point x="208" y="564" type="curve" smooth="yes"/>
      <point x="189" y="564"/>
      <point x="176" y="553"/>
      <point x="161" y="517" type="curve" smooth="yes"/>
      <point x="160" y="513"/>
      <point x="157" y="509"/>
      <point x="154" y="499" type="curve" smooth="yes"/>
      <point x="148" y="491"/>
      <point x="126" y="486"/>
      <point x="127" y="499" type="curve" smooth="yes"/>
      <point x="149" y="585"/>
      <point x="193" y="626"/>
      <point x="254" y="626" type="curve" smooth="yes"/>
      <point x="284" y="626"/>
      <point x="305" y="617"/>
      <point x="343" y="586" type="curve" smooth="yes"/>
      <point x="370" y="565"/>
      <point x="384" y="559"/>
      <point x="396" y="559" type="curve" smooth="yes"/>
      <point x="417" y="559"/>
      <point x="431" y="571"/>
      <point x="450" y="625" type="curve" smooth="yes"/>
      <point x="451" y="629"/>
      <point x="459" y="631"/>
      <point x="465" y="631" type="curve" smooth="yes"/>
      <point x="471" y="632"/>
      <point x="476" y="629"/>
    </contour>
    <contour>
      <point x="452" y="108" type="curve" smooth="yes"/>
      <point x="442" y="93" type="line" smooth="yes"/>
      <point x="396" y="24"/>
      <point x="340" y="-12"/>
      <point x="308" y="-12" type="curve" smooth="yes"/>
      <point x="266" y="-12"/>
      <point x="269" y="39"/>
      <point x="277" y="69" type="curve" smooth="yes"/>
      <point x="290" y="122"/>
      <point x="325" y="247"/>
      <point x="340" y="319" type="curve" smooth="yes"/>
      <point x="342" y="331"/>
      <point x="348" y="362"/>
      <point x="334" y="362" type="curve" smooth="yes"/>
      <point x="295" y="362"/>
      <point x="179" y="195"/>
      <point x="153" y="159" type="curve"/>
      <point x="122" y="11" type="line" smooth="yes"/>
      <point x="118" y="-8"/>
      <point x="115" y="-11"/>
      <point x="97" y="-11" type="curve" smooth="yes"/>
      <point x="70" y="-11" type="line" smooth="yes"/>
      <point x="57" y="-11"/>
      <point x="44" y="-5"/>
      <point x="50" y="14" type="curve" smooth="yes"/>
      <point x="108" y="304" type="line" smooth="yes"/>
      <point x="116" y="346"/>
      <point x="101" y="324"/>
      <point x="96" y="319" type="curve" smooth="yes"/>
      <point x="82" y="302"/>
      <point x="78" y="296"/>
      <point x="65" y="279" type="curve" smooth="yes"/>
      <point x="52" y="263"/>
      <point x="39" y="291"/>
      <point x="49" y="305" type="curve" smooth="yes"/>
      <point x="67" y="330"/>
      <point x="144" y="431"/>
      <point x="177" y="429" type="curve" smooth="yes"/>
      <point x="200" y="428"/>
      <point x="201" y="399"/>
      <point x="196" y="374" type="curve" smooth="yes"/>
      <point x="196" y="374"/>
      <point x="171" y="250"/>
      <point x="173" y="258" type="curve"/>
      <point x="169" y="237"/>
      <point x="194" y="269"/>
      <point x="194" y="269" type="curve"/>
      <point x="246" y="340"/>
      <point x="306" y="429"/>
      <point x="375" y="429" type="curve" smooth="yes"/>
      <point x="434" y="429"/>
      <point x="422" y="340"/>
      <point x="413" y="303" type="curve" smooth="yes"/>
      <point x="401" y="256"/>
      <point x="383" y="178"/>
      <point x="354" y="76" type="curve" smooth="yes"/>
      <point x="352" y="71"/>
      <point x="344" y="50"/>
      <point x="351" y="48" type="curve" smooth="yes"/>
      <point x="356" y="47"/>
      <point x="372" y="57"/>
      <point x="390" y="78" type="curve" smooth="yes"/>
      <point x="408" y="98"/>
      <point x="426" y="120"/>
      <point x="431" y="126" type="curve" smooth="yes"/>
      <point x="436" y="134"/>
      <point x="443" y="131"/>
      <point x="447" y="127" type="curve" smooth="yes"/>
      <point x="451" y="123"/>
      <point x="453" y="115"/>
    </contour>
  </outline>
</glyph>
<glyph name="ograve" format="1">
  <advance width="401"/>
  <unicode hex="00F2"/>
  <outline>
    <contour>
      <point x="329" y="504" type="curve" smooth="yes"/>
      <point x="332" y="491"/>
      <point x="311" y="492"/>
      <point x="305" y="499" type="curve" smooth="yes"/>
      <point x="278" y="535"/>
      <point x="225" y="601"/>
      <point x="192" y="635" type="curve" smooth="yes"/>
      <point x="180" y="647"/>
      <point x="196" y="657"/>
      <point x="203" y="657" type="curve" smooth="yes"/>
      <point x="259" y="657" type="line" smooth="yes"/>
      <point x="269" y="657"/>
      <point x="278" y="656"/>
      <point x="285" y="643" type="curve" smooth="yes"/>
      <point x="296" y="621"/>
      <point x="319" y="539"/>
    </contour>
    <contour>
      <point x="374" y="273" type="curve" smooth="yes"/>
      <point x="374" y="211"/>
      <point x="355" y="153"/>
      <point x="320" y="107" type="curve" smooth="yes"/>
      <point x="290" y="68"/>
      <point x="238" y="25"/>
      <point x="189" y="4" type="curve" smooth="yes"/>
      <point x="167" y="-6"/>
      <point x="147" y="-12"/>
      <point x="133" y="-12" type="curve" smooth="yes"/>
      <point x="85" y="-12"/>
      <point x="38" y="71"/>
      <point x="38" y="155" type="curve" smooth="yes"/>
      <point x="38" y="242"/>
      <point x="89" y="327"/>
      <point x="174" y="385" type="curve" smooth="yes"/>
      <point x="211" y="411"/>
      <point x="252" y="429"/>
      <point x="277" y="429" type="curve" smooth="yes"/>
      <point x="325" y="429"/>
      <point x="374" y="353"/>
    </contour>
    <contour>
      <point x="299" y="260" type="curve" smooth="yes"/>
      <point x="299" y="330"/>
      <point x="265" y="379"/>
      <point x="228" y="379" type="curve" smooth="yes"/>
      <point x="171" y="379"/>
      <point x="115" y="275"/>
      <point x="115" y="152" type="curve" smooth="yes"/>
      <point x="115" y="85"/>
      <point x="146" y="37"/>
      <point x="177" y="37" type="curve" smooth="yes"/>
      <point x="238" y="37"/>
      <point x="299" y="140"/>
    </contour>
  </outline>
</glyph>
<glyph name="ocircumflex" format="1">
  <advance width="401"/>
  <unicode hex="00F4"/>
  <outline>
    <contour>
      <point x="374" y="273" type="curve" smooth="yes"/>
      <point x="374" y="211"/>
      <point x="355" y="153"/>
      <point x="320" y="107" type="curve" smooth="yes"/>
      <point x="290" y="68"/>
      <point x="238" y="25"/>
      <point x="189" y="4" type="curve" smooth="yes"/>
      <point x="167" y="-6"/>
      <point x="147" y="-12"/>
      <point x="133" y="-12" type="curve" smooth="yes"/>
      <point x="85" y="-12"/>
      <point x="38" y="71"/>
      <point x="38" y="155" type="curve" smooth="yes"/>
      <point x="38" y="242"/>
      <point x="89" y="327"/>
      <point x="174" y="385" type="curve" smooth="yes"/>
      <point x="211" y="411"/>
      <point x="252" y="429"/>
      <point x="277" y="429" type="curve" smooth="yes"/>
      <point x="325" y="429"/>
      <point x="374" y="353"/>
    </contour>
    <contour>
      <point x="299" y="260" type="curve" smooth="yes"/>
      <point x="299" y="330"/>
      <point x="265" y="379"/>
      <point x="228" y="379" type="curve" smooth="yes"/>
      <point x="171" y="379"/>
      <point x="115" y="275"/>
      <point x="115" y="152" type="curve" smooth="yes"/>
      <point x="115" y="85"/>
      <point x="146" y="37"/>
      <point x="177" y="37" type="curve" smooth="yes"/>
      <point x="238" y="37"/>
      <point x="299" y="140"/>
    </contour>
    <contour>
      <point x="405" y="484" type="line" smooth="yes"/>
      <point x="409" y="474"/>
      <point x="389" y="477"/>
      <point x="386" y="484" type="curve" smooth="yes"/>
      <point x="313" y="570" type="line" smooth="yes"/>
      <point x="309" y="575"/>
      <point x="305" y="579"/>
      <point x="296" y="573" type="curve" smooth="yes"/>
      <point x="154" y="484" type="line" smooth="yes"/>
      <point x="140" y="475"/>
      <point x="111" y="469"/>
      <point x="137" y="495" type="curve" smooth="yes"/>
      <point x="278" y="637" type="line" smooth="yes"/>
      <point x="285" y="645"/>
      <point x="289" y="645"/>
      <point x="301" y="647" type="curve" smooth="yes"/>
      <point x="349" y="647" type="line" smooth="yes"/>
      <point x="356" y="647"/>
      <point x="367" y="644"/>
      <point x="369" y="635" type="curve" smooth="yes"/>
    </contour>
  </outline>
</glyph>
<glyph name="ucircumflex" format="1">
  <advance width="487"/>
  <unicode hex="00FB"/>
  <outline>
    <contour>
      <point x="463" y="106" type="curve" smooth="yes"/>
      <point x="414" y="42"/>
      <point x="349" y="-12"/>
      <point x="326" y="-12" type="curve" smooth="yes"/>
      <point x="309" y="-12"/>
      <point x="302" y="5"/>
      <point x="302" y="23" type="curve" smooth="yes"/>
      <point x="302" y="67"/>
      <point x="312" y="120"/>
      <point x="324" y="169" type="curve" smooth="yes"/>
      <point x="326" y="176"/>
      <point x="330" y="199"/>
      <point x="322" y="187" type="curve" smooth="yes"/>
      <point x="248" y="74"/>
      <point x="158" y="-12"/>
      <point x="114" y="-12" type="curve" smooth="yes"/>
      <point x="65" y="-12"/>
      <point x="85" y="92"/>
      <point x="89" y="114" type="curve" smooth="yes"/>
      <point x="133" y="336" type="line" smooth="yes"/>
      <point x="135" y="344"/>
      <point x="135" y="347"/>
      <point x="125" y="339" type="curve" smooth="yes"/>
      <point x="111" y="329"/>
      <point x="86" y="300"/>
      <point x="80" y="292" type="curve" smooth="yes"/>
      <point x="66" y="275"/>
      <point x="50" y="296"/>
      <point x="58" y="307" type="curve" smooth="yes"/>
      <point x="75" y="330"/>
      <point x="145" y="427"/>
      <point x="191" y="427" type="curve" smooth="yes"/>
      <point x="225" y="427"/>
      <point x="214" y="373"/>
      <point x="210" y="353" type="curve" smooth="yes"/>
      <point x="162" y="111" type="line" smooth="yes"/>
      <point x="159" y="101"/>
      <point x="153" y="47"/>
      <point x="179" y="71" type="curve" smooth="yes"/>
      <point x="230" y="118"/>
      <point x="271" y="173"/>
      <point x="310" y="227" type="curve" smooth="yes"/>
      <point x="330" y="254"/>
      <point x="340" y="275"/>
      <point x="349" y="305" type="curve" smooth="yes"/>
      <point x="360" y="339"/>
      <point x="365" y="376"/>
      <point x="371" y="411" type="curve" smooth="yes"/>
      <point x="373" y="423"/>
      <point x="375" y="431"/>
      <point x="392" y="430" type="curve" smooth="yes"/>
      <point x="407" y="429"/>
      <point x="408" y="430"/>
      <point x="427" y="430" type="curve" smooth="yes"/>
      <point x="450" y="431"/>
      <point x="447" y="413"/>
      <point x="445" y="401" type="curve" smooth="yes"/>
      <point x="382" y="85" type="line" smooth="yes"/>
      <point x="380" y="75"/>
      <point x="381" y="62"/>
      <point x="405" y="88" type="curve" smooth="yes"/>
      <point x="416" y="101"/>
      <point x="428" y="115"/>
      <point x="438" y="129" type="curve" smooth="yes"/>
      <point x="448" y="143"/>
      <point x="468" y="119"/>
    </contour>
    <contour>
      <point x="447" y="507" type="line" smooth="yes"/>
      <point x="451" y="497"/>
      <point x="431" y="500"/>
      <point x="428" y="507" type="curve" smooth="yes"/>
      <point x="410" y="529"/>
      <point x="373" y="575"/>
      <point x="363" y="585" type="curve" smooth="yes"/>
      <point x="359" y="590"/>
      <point x="341" y="597"/>
      <point x="332" y="591" type="curve" smooth="yes"/>
      <point x="197" y="507" type="line" smooth="yes"/>
      <point x="183" y="498"/>
      <point x="154" y="493"/>
      <point x="180" y="518" type="curve" smooth="yes"/>
      <point x="321" y="657" type="line" smooth="yes"/>
      <point x="329" y="664"/>
      <point x="332" y="665"/>
      <point x="344" y="667" type="curve" smooth="yes"/>
      <point x="384" y="667" type="line" smooth="yes"/>
      <point x="391" y="667"/>
      <point x="401" y="664"/>
      <point x="404" y="655" type="curve" smooth="yes"/>
    </contour>
  </outline>
</glyph>
<glyph name="udieresis" format="1">
  <advance width="487"/>
  <unicode hex="00FC"/>
  <outline>
    <contour>
      <point x="454" y="558" type="curve" smooth="yes"/>
      <point x="454" y="529"/>
      <point x="431" y="505"/>
      <point x="400" y="505" type="curve" smooth="yes"/>
      <point x="371" y="505"/>
      <point x="346" y="529"/>
      <point x="346" y="558" type="curve" smooth="yes"/>
      <point x="346" y="588"/>
      <point x="371" y="611"/>
      <point x="400" y="611" type="curve" smooth="yes"/>
      <point x="430" y="611"/>
      <point x="454" y="588"/>
    </contour>
    <contour>
      <point x="291" y="557" type="curve" smooth="yes"/>
      <point x="291" y="529"/>
      <point x="266" y="505"/>
      <point x="237" y="505" type="curve" smooth="yes"/>
      <point x="207" y="505"/>
      <point x="184" y="529"/>
      <point x="184" y="557" type="curve" smooth="yes"/>
      <point x="184" y="587"/>
      <point x="207" y="610"/>
      <point x="237" y="610" type="curve" smooth="yes"/>
      <point x="266" y="610"/>
      <point x="291" y="587"/>
    </contour>
    <contour>
      <point x="463" y="106" type="curve" smooth="yes"/>
      <point x="414" y="42"/>
      <point x="349" y="-12"/>
      <point x="326" y="-12" type="curve" smooth="yes"/>
      <point x="309" y="-12"/>
      <point x="302" y="5"/>
      <point x="302" y="23" type="curve" smooth="yes"/>
      <point x="302" y="67"/>
      <point x="312" y="120"/>
      <point x="324" y="169" type="curve" smooth="yes"/>
      <point x="326" y="176"/>
      <point x="330" y="199"/>
      <point x="322" y="187" type="curve" smooth="yes"/>
      <point x="248" y="74"/>
      <point x="158" y="-12"/>
      <point x="114" y="-12" type="curve" smooth="yes"/>
      <point x="65" y="-12"/>
      <point x="85" y="92"/>
      <point x="89" y="114" type="curve" smooth="yes"/>
      <point x="133" y="336" type="line" smooth="yes"/>
      <point x="135" y="344"/>
      <point x="135" y="347"/>
      <point x="125" y="339" type="curve" smooth="yes"/>
      <point x="111" y="329"/>
      <point x="86" y="300"/>
      <point x="80" y="292" type="curve" smooth="yes"/>
      <point x="66" y="275"/>
      <point x="50" y="296"/>
      <point x="58" y="307" type="curve" smooth="yes"/>
      <point x="75" y="330"/>
      <point x="145" y="427"/>
      <point x="191" y="427" type="curve" smooth="yes"/>
      <point x="225" y="427"/>
      <point x="214" y="373"/>
      <point x="210" y="353" type="curve" smooth="yes"/>
      <point x="162" y="111" type="line" smooth="yes"/>
      <point x="159" y="101"/>
      <point x="153" y="47"/>
      <point x="179" y="71" type="curve" smooth="yes"/>
      <point x="230" y="118"/>
      <point x="271" y="173"/>
      <point x="310" y="227" type="curve" smooth="yes"/>
      <point x="330" y="254"/>
      <point x="340" y="275"/>
      <point x="349" y="305" type="curve" smooth="yes"/>
      <point x="360" y="339"/>
      <point x="365" y="376"/>
      <point x="371" y="411" type="curve" smooth="yes"/>
      <point x="373" y="423"/>
      <point x="375" y="431"/>
      <point x="392" y="430" type="curve" smooth="yes"/>
      <point x="407" y="429"/>
      <point x="408" y="430"/>
      <point x="427" y="430" type="curve" smooth="yes"/>
      <point x="450" y="431"/>
      <point x="447" y="413"/>
      <point x="445" y="401" type="curve" smooth="yes"/>
      <point x="382" y="85" type="line" smooth="yes"/>
      <point x="380" y="75"/>
      <point x="381" y="62"/>
      <point x="405" y="88" type="curve" smooth="yes"/>
      <point x="416" y="101"/>
      <point x="428" y="115"/>
      <point x="438" y="129" type="curve" smooth="yes"/>
      <point x="448" y="143"/>
      <point x="468" y="119"/>
    </contour>
  </outline>
</glyph>
<glyph name="thorn" format="1">
  <advance width="446"/>
  <unicode hex="00FE"/>
  <outline>
    <contour>
      <point x="430" y="272" type="curve" smooth="yes"/>
      <point x="430" y="126"/>
      <point x="311" y="-16"/>
      <point x="185" y="-16" type="curve" smooth="yes"/>
      <point x="171" y="-16"/>
      <point x="159" y="-15"/>
      <point x="147" y="-12" type="curve" smooth="yes"/>
      <point x="142" y="-11"/>
      <point x="132" y="-24"/>
      <point x="129" y="-39" type="curve" smooth="yes"/>
      <point x="114" y="-117" type="line" smooth="yes"/>
      <point x="111" y="-135"/>
      <point x="104" y="-159"/>
      <point x="104" y="-178" type="curve" smooth="yes"/>
      <point x="104" y="-200"/>
      <point x="110" y="-205"/>
      <point x="158" y="-209" type="curve" smooth="yes"/>
      <point x="174" y="-210"/>
      <point x="185" y="-211"/>
      <point x="181" y="-229" type="curve" smooth="yes"/>
      <point x="177" y="-238"/>
      <point x="172" y="-244"/>
      <point x="160" y="-243" type="curve" smooth="yes"/>
      <point x="105" y="-241"/>
      <point x="4" y="-239"/>
      <point x="-48" y="-243" type="curve" smooth="yes"/>
      <point x="-61" y="-244"/>
      <point x="-68" y="-231"/>
      <point x="-63" y="-219" type="curve" smooth="yes"/>
      <point x="-60" y="-214"/>
      <point x="-55" y="-211"/>
      <point x="-43" y="-212" type="curve" smooth="yes"/>
      <point x="-38" y="-212"/>
      <point x="-32" y="-211"/>
      <point x="-27" y="-210" type="curve" smooth="yes"/>
      <point x="10" y="-204"/>
      <point x="27" y="-184"/>
      <point x="36" y="-136" type="curve" smooth="yes"/>
      <point x="41" y="-111"/>
      <point x="14" y="-246"/>
      <point x="178" y="583" type="curve" smooth="yes"/>
      <point x="180" y="594"/>
      <point x="186" y="636"/>
      <point x="156" y="600" type="curve" smooth="yes"/>
      <point x="124" y="561" type="line" smooth="yes"/>
      <point x="116" y="551"/>
      <point x="108" y="549"/>
      <point x="101" y="556" type="curve" smooth="yes"/>
      <point x="91" y="566"/>
      <point x="95" y="571"/>
      <point x="99" y="577" type="curve" smooth="yes"/>
      <point x="154" y="646"/>
      <point x="213" y="700"/>
      <point x="240" y="700" type="curve" smooth="yes"/>
      <point x="277" y="700"/>
      <point x="260" y="623"/>
      <point x="256" y="603" type="curve" smooth="yes"/>
      <point x="205" y="348" type="line" smooth="yes"/>
      <point x="198" y="311"/>
      <point x="199" y="288"/>
      <point x="204" y="295" type="curve" smooth="yes"/>
      <point x="239" y="341"/>
      <point x="262" y="365"/>
      <point x="294" y="393" type="curve" smooth="yes"/>
      <point x="335" y="428"/>
      <point x="370" y="446"/>
      <point x="401" y="390" type="curve" smooth="yes"/>
      <point x="419" y="357"/>
      <point x="430" y="314"/>
    </contour>
    <contour>
      <point x="355" y="268" type="curve" smooth="yes"/>
      <point x="355" y="327"/>
      <point x="336" y="364"/>
      <point x="317" y="364" type="curve" smooth="yes"/>
      <point x="300" y="364"/>
      <point x="249" y="314"/>
      <point x="194" y="237" type="curve" smooth="yes"/>
      <point x="182" y="220"/>
      <point x="179" y="216"/>
      <point x="175" y="194" type="curve" smooth="yes"/>
      <point x="149" y="61" type="line" smooth="yes"/>
      <point x="144" y="37"/>
      <point x="186" y="20"/>
      <point x="202" y="20" type="curve" smooth="yes"/>
      <point x="279" y="20"/>
      <point x="355" y="138"/>
    </contour>
  </outline>
</glyph>
<glyph name="Lslash" format="1">
  <advance width="593"/>
  <unicode hex="0141"/>
  <outline>
    <contour>
      <point x="623" y="130" type="curve" smooth="yes"/>
      <point x="587" y="20" type="line" smooth="yes"/>
      <point x="582" y="6"/>
      <point x="558" y="-4"/>
      <point x="544" y="-4" type="curve" smooth="yes"/>
      <point x="423" y="-3"/>
      <point x="136" y="-2"/>
      <point x="54" y="-4" type="curve" smooth="yes"/>
      <point x="36" y="-4"/>
      <point x="35" y="9"/>
      <point x="36" y="17" type="curve" smooth="yes"/>
      <point x="39" y="33"/>
      <point x="47" y="35"/>
      <point x="56" y="35" type="curve" smooth="yes"/>
      <point x="107" y="35"/>
      <point x="126" y="52"/>
      <point x="142" y="130" type="curve" smooth="yes"/>
      <point x="162" y="228" type="line" smooth="yes"/>
      <point x="164" y="238"/>
      <point x="166" y="254"/>
      <point x="153" y="243" type="curve" smooth="yes"/>
      <point x="129" y="221"/>
      <point x="104" y="200"/>
      <point x="79" y="179" type="curve" smooth="yes"/>
      <point x="76" y="175"/>
      <point x="67" y="175"/>
      <point x="71" y="191" type="curve" smooth="yes"/>
      <point x="89" y="261" type="line" smooth="yes"/>
      <point x="94" y="280"/>
      <point x="98" y="283"/>
      <point x="104" y="287" type="curve" smooth="yes"/>
      <point x="180" y="351" type="line" smooth="yes"/>
      <point x="186" y="356"/>
      <point x="189" y="367"/>
      <point x="192" y="380" type="curve" smooth="yes"/>
      <point x="222" y="532" type="line" smooth="yes"/>
      <point x="231" y="578"/>
      <point x="237" y="615"/>
      <point x="169" y="615" type="curve" smooth="yes"/>
      <point x="146" y="615"/>
      <point x="146" y="617"/>
      <point x="149" y="637" type="curve" smooth="yes"/>
      <point x="150" y="645"/>
      <point x="156" y="648"/>
      <point x="164" y="648" type="curve" smooth="yes"/>
      <point x="223" y="646"/>
      <point x="344" y="646"/>
      <point x="406" y="648" type="curve" smooth="yes"/>
      <point x="423" y="648"/>
      <point x="425" y="644"/>
      <point x="422" y="632" type="curve" smooth="yes"/>
      <point x="419" y="617"/>
      <point x="418" y="615"/>
      <point x="402" y="615" type="curve" smooth="yes"/>
      <point x="346" y="615"/>
      <point x="327" y="600"/>
      <point x="313" y="529" type="curve" smooth="yes"/>
      <point x="303" y="479" type="line" smooth="yes"/>
      <point x="299" y="461"/>
      <point x="298" y="449"/>
      <point x="307" y="456" type="curve" smooth="yes"/>
      <point x="334" y="480"/>
      <point x="362" y="503"/>
      <point x="390" y="527" type="curve" smooth="yes"/>
      <point x="400" y="536"/>
      <point x="405" y="532"/>
      <point x="402" y="520" type="curve" smooth="yes"/>
      <point x="383" y="448" type="line" smooth="yes"/>
      <point x="381" y="440"/>
      <point x="376" y="429"/>
      <point x="366" y="420" type="curve" smooth="yes"/>
      <point x="286" y="353" type="line" smooth="yes"/>
      <point x="283" y="350"/>
      <point x="276" y="343"/>
      <point x="272" y="324" type="curve" smooth="yes"/>
      <point x="232" y="121" type="line" smooth="yes"/>
      <point x="229" y="107"/>
      <point x="228" y="93"/>
      <point x="228" y="82" type="curve" smooth="yes"/>
      <point x="228" y="55"/>
      <point x="241" y="43"/>
      <point x="273" y="43" type="curve" smooth="yes"/>
      <point x="389" y="43" type="line" smooth="yes"/>
      <point x="444" y="43"/>
      <point x="483" y="52"/>
      <point x="517" y="72" type="curve" smooth="yes"/>
      <point x="544" y="87"/>
      <point x="562" y="103"/>
      <point x="587" y="134" type="curve" smooth="yes"/>
      <point x="595" y="144"/>
      <point x="595" y="150"/>
      <point x="608" y="150" type="curve" smooth="yes"/>
      <point x="614" y="150" type="line" smooth="yes"/>
      <point x="622" y="150"/>
      <point x="627" y="142"/>
    </contour>
  </outline>
</glyph>
<glyph name="OE" format="1">
  <advance width="1049"/>
  <unicode hex="0152"/>
  <outline>
    <contour>
      <point x="1052" y="630" type="curve" smooth="yes"/>
      <point x="1049" y="579"/>
      <point x="1031" y="511"/>
      <point x="1026" y="502" type="curve" smooth="yes"/>
      <point x="1022" y="492"/>
      <point x="1003" y="496"/>
      <point x="1000" y="502" type="curve" smooth="yes"/>
      <point x="1000" y="515" type="line" smooth="yes"/>
      <point x="1000" y="584"/>
      <point x="972" y="609"/>
      <point x="897" y="609" type="curve" smooth="yes"/>
      <point x="754" y="609" type="line" smooth="yes"/>
      <point x="745" y="609"/>
      <point x="724" y="605"/>
      <point x="722" y="591" type="curve" smooth="yes"/>
      <point x="711" y="531"/>
      <point x="688" y="411"/>
      <point x="675" y="356" type="curve" smooth="yes"/>
      <point x="673" y="350"/>
      <point x="686" y="343"/>
      <point x="695" y="345" type="curve" smooth="yes"/>
      <point x="856" y="345" type="line" smooth="yes"/>
      <point x="903" y="345"/>
      <point x="934" y="364"/>
      <point x="949" y="410" type="curve"/>
      <point x="956" y="416"/>
      <point x="964" y="415"/>
      <point x="971" y="413" type="curve" smooth="yes"/>
      <point x="977" y="411"/>
      <point x="977" y="404"/>
      <point x="975" y="397" type="curve" smooth="yes"/>
      <point x="964" y="347"/>
      <point x="953" y="266"/>
      <point x="942" y="228" type="curve" smooth="yes"/>
      <point x="938" y="220"/>
      <point x="914" y="216"/>
      <point x="912" y="230" type="curve" smooth="yes"/>
      <point x="912" y="233"/>
      <point x="913" y="236"/>
      <point x="913" y="239" type="curve" smooth="yes"/>
      <point x="913" y="292"/>
      <point x="895" y="308"/>
      <point x="817" y="308" type="curve" smooth="yes"/>
      <point x="690" y="308" type="line" smooth="yes"/>
      <point x="679" y="305"/>
      <point x="665" y="306"/>
      <point x="663" y="296" type="curve" smooth="yes"/>
      <point x="653" y="236"/>
      <point x="634" y="144"/>
      <point x="623" y="97" type="curve" smooth="yes"/>
      <point x="610" y="42"/>
      <point x="660" y="36"/>
      <point x="710" y="36" type="curve" smooth="yes"/>
      <point x="761" y="36" type="line" smooth="yes"/>
      <point x="824" y="36"/>
      <point x="867" y="48"/>
      <point x="911" y="78" type="curve" smooth="yes"/>
      <point x="940" y="98"/>
      <point x="957" y="113"/>
      <point x="977" y="144" type="curve" smooth="yes"/>
      <point x="981" y="148"/>
      <point x="988" y="149"/>
      <point x="993" y="149" type="curve" smooth="yes"/>
      <point x="998" y="150"/>
      <point x="1006" y="147"/>
      <point x="1005" y="139" type="curve" smooth="yes"/>
      <point x="1000" y="106"/>
      <point x="966" y="42"/>
      <point x="954" y="13" type="curve" smooth="yes"/>
      <point x="950" y="3"/>
      <point x="945" y="-2"/>
      <point x="926" y="-2" type="curve" smooth="yes"/>
      <point x="526" y="-2" type="line" smooth="yes"/>
      <point x="482" y="-2"/>
      <point x="438" y="-6"/>
      <point x="394" y="-6" type="curve" smooth="yes"/>
      <point x="213" y="-6"/>
      <point x="93" y="109"/>
      <point x="93" y="286" type="curve" smooth="yes"/>
      <point x="93" y="445"/>
      <point x="202" y="589"/>
      <point x="356" y="631" type="curve" smooth="yes"/>
      <point x="406" y="645"/>
      <point x="459" y="651"/>
      <point x="524" y="651" type="curve" smooth="yes"/>
      <point x="567" y="651"/>
      <point x="611" y="648"/>
      <point x="654" y="647" type="curve" smooth="yes"/>
      <point x="745" y="644"/>
      <point x="973" y="651"/>
      <point x="1039" y="647" type="curve" smooth="yes"/>
      <point x="1048" y="646"/>
      <point x="1055" y="643"/>
    </contour>
    <contour>
      <point x="621" y="547" type="curve" smooth="yes"/>
      <point x="621" y="590"/>
      <point x="586" y="615"/>
      <point x="504" y="615" type="curve" smooth="yes"/>
      <point x="415" y="615"/>
      <point x="342" y="580"/>
      <point x="282" y="509" type="curve" smooth="yes"/>
      <point x="224" y="442"/>
      <point x="191" y="354"/>
      <point x="191" y="267" type="curve" smooth="yes"/>
      <point x="191" y="120"/>
      <point x="272" y="31"/>
      <point x="403" y="31" type="curve" smooth="yes"/>
      <point x="508" y="31"/>
      <point x="529" y="74"/>
      <point x="549" y="171" type="curve" smooth="yes"/>
      <point x="617" y="508" type="line" smooth="yes"/>
      <point x="620" y="521"/>
      <point x="621" y="536"/>
    </contour>
  </outline>
</glyph>
<glyph name="scaron" format="1">
  <advance width="320"/>
  <unicode hex="0161"/>
  <outline>
    <contour>
      <point x="313" y="357" type="curve" smooth="yes"/>
      <point x="313" y="336"/>
      <point x="299" y="318"/>
      <point x="280" y="318" type="curve" smooth="yes"/>
      <point x="267" y="318"/>
      <point x="257" y="328"/>
      <point x="249" y="341" type="curve" smooth="yes"/>
      <point x="239" y="358"/>
      <point x="222" y="387"/>
      <point x="203" y="387" type="curve" smooth="yes"/>
      <point x="178" y="387"/>
      <point x="148" y="350"/>
      <point x="148" y="324" type="curve" smooth="yes"/>
      <point x="148" y="291"/>
      <point x="194" y="245"/>
      <point x="215" y="221" type="curve" smooth="yes"/>
      <point x="245" y="186"/>
      <point x="258" y="155"/>
      <point x="258" y="122" type="curve" smooth="yes"/>
      <point x="258" y="40"/>
      <point x="194" y="-12"/>
      <point x="95" y="-12" type="curve" smooth="yes"/>
      <point x="47" y="-12"/>
      <point x="10" y="6"/>
      <point x="14" y="41" type="curve" smooth="yes"/>
      <point x="20" y="90"/>
      <point x="63" y="78"/>
      <point x="86" y="64" type="curve" smooth="yes"/>
      <point x="108" y="50"/>
      <point x="131" y="32"/>
      <point x="158" y="32" type="curve" smooth="yes"/>
      <point x="186" y="32"/>
      <point x="207" y="53"/>
      <point x="207" y="79" type="curve" smooth="yes"/>
      <point x="207" y="123"/>
      <point x="156" y="173"/>
      <point x="130" y="205" type="curve" smooth="yes"/>
      <point x="78" y="268"/>
      <point x="78" y="318"/>
      <point x="136" y="378" type="curve" smooth="yes"/>
      <point x="166" y="410"/>
      <point x="203" y="429"/>
      <point x="236" y="429" type="curve" smooth="yes"/>
      <point x="271" y="429"/>
      <point x="313" y="390"/>
    </contour>
    <contour>
      <point x="415" y="629" type="curve" smooth="yes"/>
      <point x="272" y="485" type="line" smooth="yes"/>
      <point x="266" y="481"/>
      <point x="255" y="478"/>
      <point x="241" y="478" type="curve" smooth="yes"/>
      <point x="199" y="478" type="line" smooth="yes"/>
      <point x="189" y="476"/>
      <point x="185" y="486"/>
      <point x="183" y="489" type="curve" smooth="yes"/>
      <point x="146" y="641" type="line" smooth="yes"/>
      <point x="144" y="650"/>
      <point x="162" y="650"/>
      <point x="166" y="641" type="curve" smooth="yes"/>
      <point x="240" y="552" type="line" smooth="yes"/>
      <point x="245" y="547"/>
      <point x="252" y="549"/>
      <point x="260" y="554" type="curve" smooth="yes"/>
      <point x="398" y="641" type="line" smooth="yes"/>
      <point x="407" y="646"/>
      <point x="436" y="651"/>
    </contour>
  </outline>
</glyph>
<glyph name="circumflex" format="1">
  <advance width="339"/>
  <unicode hex="02C6"/>
  <outline>
    <contour>
      <point x="365" y="478" type="line" smooth="yes"/>
      <point x="369" y="468"/>
      <point x="349" y="471"/>
      <point x="346" y="478" type="curve" smooth="yes"/>
      <point x="273" y="564" type="line" smooth="yes"/>
      <point x="269" y="569"/>
      <point x="265" y="573"/>
      <point x="256" y="567" type="curve" smooth="yes"/>
      <point x="114" y="478" type="line" smooth="yes"/>
      <point x="100" y="469"/>
      <point x="71" y="463"/>
      <point x="97" y="489" type="curve" smooth="yes"/>
      <point x="238" y="631" type="line" smooth="yes"/>
      <point x="245" y="639"/>
      <point x="249" y="639"/>
      <point x="261" y="641" type="curve" smooth="yes"/>
      <point x="309" y="641" type="line" smooth="yes"/>
      <point x="316" y="641"/>
      <point x="327" y="638"/>
      <point x="329" y="629" type="curve" smooth="yes"/>
    </contour>
  </outline>
</glyph>
<glyph name="caron" format="1">
  <advance width="339"/>
  <unicode hex="02C7"/>
  <outline>
    <contour>
      <point x="415" y="629" type="curve" smooth="yes"/>
      <point x="272" y="485" type="line" smooth="yes"/>
      <point x="266" y="481"/>
      <point x="255" y="478"/>
      <point x="241" y="478" type="curve" smooth="yes"/>
      <point x="199" y="478" type="line" smooth="yes"/>
      <point x="189" y="476"/>
      <point x="185" y="486"/>
      <point x="183" y="489" type="curve" smooth="yes"/>
      <point x="146" y="641" type="line" smooth="yes"/>
      <point x="144" y="650"/>
      <point x="162" y="650"/>
      <point x="166" y="641" type="curve" smooth="yes"/>
      <point x="240" y="552" type="line" smooth="yes"/>
      <point x="245" y="547"/>
      <point x="252" y="549"/>
      <point x="260" y="554" type="curve" smooth="yes"/>
      <point x="398" y="641" type="line" smooth="yes"/>
      <point x="407" y="646"/>
      <point x="436" y="651"/>
    </contour>
  </outline>
</glyph>
<glyph name="dotaccent" format="1">
  <advance width="339"/>
  <unicode hex="02D9"/>
  <outline>
    <contour>
      <point x="301" y="536" type="curve" smooth="yes"/>
      <point x="301" y="505"/>
      <point x="277" y="481"/>
      <point x="246" y="481" type="curve" smooth="yes"/>
      <point x="216" y="481"/>
      <point x="192" y="505"/>
      <point x="192" y="536" type="curve" smooth="yes"/>
      <point x="192" y="567"/>
      <point x="216" y="592"/>
      <point x="246" y="592" type="curve" smooth="yes"/>
      <point x="277" y="592"/>
      <point x="301" y="567"/>
    </contour>
  </outline>
</glyph>
<glyph name="hungarumlaut" format="1">
  <advance width="339"/>
  <unicode hex="02DD"/>
  <outline>
    <contour>
      <point x="437" y="640" type="curve"/>
      <point x="300" y="483" type="line"/>
      <point x="289" y="483" type="line" smooth="yes"/>
      <point x="285" y="483"/>
      <point x="273" y="483"/>
      <point x="277" y="494" type="curve" smooth="yes"/>
      <point x="322" y="637" type="line" smooth="yes"/>
      <point x="328" y="656"/>
      <point x="335" y="660"/>
      <point x="351" y="660" type="curve" smooth="yes"/>
      <point x="425" y="660" type="line" smooth="yes"/>
      <point x="440" y="660"/>
      <point x="444" y="656"/>
    </contour>
    <contour>
      <point x="306" y="643" type="curve" smooth="yes"/>
      <point x="167" y="483" type="line" smooth="yes"/>
      <point x="162" y="481"/>
      <point x="153" y="477"/>
      <point x="146" y="481" type="curve" smooth="yes"/>
      <point x="141" y="485"/>
      <point x="144" y="492"/>
      <point x="145" y="497" type="curve" smooth="yes"/>
      <point x="191" y="643" type="line"/>
      <point x="191" y="643"/>
      <point x="196" y="660"/>
      <point x="218" y="660" type="curve" smooth="yes"/>
      <point x="293" y="660" type="line" smooth="yes"/>
      <point x="311" y="658"/>
      <point x="311" y="652"/>
    </contour>
  </outline>
</glyph>
<glyph name="endash" format="1">
  <advance width="591"/>
  <unicode hex="2013"/>
  <outline>
    <contour>
      <point x="548" y="241" type="curve" smooth="yes"/>
      <point x="546" y="204" type="line" smooth="yes"/>
      <point x="545" y="197"/>
      <point x="539" y="195"/>
      <point x="530" y="195" type="curve" smooth="yes"/>
      <point x="318" y="197"/>
      <point x="229" y="197"/>
      <point x="55" y="195" type="curve" smooth="yes"/>
      <point x="51" y="195"/>
      <point x="45" y="202"/>
      <point x="45" y="208" type="curve" smooth="yes"/>
      <point x="47" y="243" type="line" smooth="yes"/>
      <point x="47" y="248"/>
      <point x="54" y="253"/>
      <point x="59" y="254" type="curve" smooth="yes"/>
      <point x="234" y="257"/>
      <point x="301" y="254"/>
      <point x="534" y="254" type="curve" smooth="yes"/>
      <point x="542" y="254"/>
      <point x="548" y="246"/>
    </contour>
  </outline>
</glyph>
<glyph name="quoteleft" format="1">
  <advance width="297"/>
  <unicode hex="2018"/>
  <outline>
    <contour>
      <point x="346" y="630" type="curve" smooth="yes"/>
      <point x="285" y="589"/>
      <point x="264" y="561"/>
      <point x="264" y="527" type="curve" smooth="yes"/>
      <point x="264" y="513"/>
      <point x="266" y="505"/>
      <point x="276" y="488" type="curve" smooth="yes"/>
      <point x="287" y="471"/>
      <point x="291" y="458"/>
      <point x="291" y="443" type="curve" smooth="yes"/>
      <point x="291" y="416"/>
      <point x="274" y="393"/>
      <point x="248" y="393" type="curve" smooth="yes"/>
      <point x="215" y="393"/>
      <point x="191" y="426"/>
      <point x="191" y="467" type="curve" smooth="yes"/>
      <point x="191" y="542"/>
      <point x="247" y="612"/>
      <point x="334" y="657" type="curve" smooth="yes"/>
      <point x="344" y="660"/>
      <point x="360" y="635"/>
    </contour>
  </outline>
</glyph>
<glyph name="quoteright" format="1">
  <advance width="273"/>
  <unicode hex="2019"/>
  <outline>
    <contour>
      <point x="290" y="572" type="curve" smooth="yes"/>
      <point x="290" y="497"/>
      <point x="233" y="427"/>
      <point x="146" y="381" type="curve" smooth="yes"/>
      <point x="132" y="374"/>
      <point x="123" y="400"/>
      <point x="133" y="407" type="curve" smooth="yes"/>
      <point x="195" y="449"/>
      <point x="216" y="477"/>
      <point x="216" y="511" type="curve" smooth="yes"/>
      <point x="216" y="526"/>
      <point x="214" y="533"/>
      <point x="204" y="549" type="curve" smooth="yes"/>
      <point x="193" y="566"/>
      <point x="189" y="580"/>
      <point x="189" y="594" type="curve" smooth="yes"/>
      <point x="189" y="623"/>
      <point x="207" y="644"/>
      <point x="232" y="644" type="curve" smooth="yes"/>
      <point x="264" y="644"/>
      <point x="290" y="614"/>
    </contour>
  </outline>
</glyph>
<glyph name="quotedblright" format="1">
  <advance width="509"/>
  <unicode hex="201D"/>
  <outline>
    <contour>
      <point x="521" y="583" type="curve" smooth="yes"/>
      <point x="521" y="508"/>
      <point x="466" y="438"/>
      <point x="377" y="393" type="curve" smooth="yes"/>
      <point x="366" y="387"/>
      <point x="348" y="415"/>
      <point x="363" y="420" type="curve" smooth="yes"/>
      <point x="427" y="461"/>
      <point x="448" y="490"/>
      <point x="448" y="524" type="curve" smooth="yes"/>
      <point x="448" y="538"/>
      <point x="445" y="545"/>
      <point x="435" y="561" type="curve" smooth="yes"/>
      <point x="425" y="578"/>
      <point x="420" y="593"/>
      <point x="420" y="607" type="curve" smooth="yes"/>
      <point x="420" y="635"/>
      <point x="438" y="657"/>
      <point x="464" y="657" type="curve" smooth="yes"/>
      <point x="498" y="657"/>
      <point x="521" y="625"/>
    </contour>
    <contour>
      <point x="326" y="583" type="curve" smooth="yes"/>
      <point x="326" y="508"/>
      <point x="269" y="438"/>
      <point x="180" y="393" type="curve" smooth="yes"/>
      <point x="165" y="387"/>
      <point x="158" y="414"/>
      <point x="166" y="419" type="curve" smooth="yes"/>
      <point x="230" y="461"/>
      <point x="251" y="490"/>
      <point x="251" y="524" type="curve" smooth="yes"/>
      <point x="251" y="538"/>
      <point x="249" y="546"/>
      <point x="239" y="561" type="curve" smooth="yes"/>
      <point x="228" y="578"/>
      <point x="224" y="593"/>
      <point x="224" y="607" type="curve" smooth="yes"/>
      <point x="224" y="635"/>
      <point x="242" y="657"/>
      <point x="267" y="657" type="curve" smooth="yes"/>
      <point x="302" y="657"/>
      <point x="326" y="625"/>
    </contour>
  </outline>
</glyph>
<glyph name="bullet" format="1">
  <advance width="323"/>
  <unicode hex="2022"/>
  <outline>
    <contour>
      <point x="270" y="339" type="curve" smooth="yes"/>
      <point x="270" y="281"/>
      <point x="224" y="234"/>
      <point x="167" y="234" type="curve" smooth="yes"/>
      <point x="111" y="234"/>
      <point x="65" y="281"/>
      <point x="65" y="339" type="curve" smooth="yes"/>
      <point x="65" y="396"/>
      <point x="111" y="443"/>
      <point x="167" y="443" type="curve" smooth="yes"/>
      <point x="224" y="443"/>
      <point x="270" y="396"/>
    </contour>
  </outline>
</glyph>
<glyph name="ellipsis" format="1">
  <advance width="1017"/>
  <unicode hex="2026"/>
  <outline>
    <contour>
      <point x="894" y="47" type="curve" smooth="yes"/>
      <point x="894" y="13"/>
      <point x="871" y="-14"/>
      <point x="840" y="-14" type="curve" smooth="yes"/>
      <point x="813" y="-14"/>
      <point x="795" y="6"/>
      <point x="795" y="35" type="curve" smooth="yes"/>
      <point x="795" y="36"/>
      <point x="795" y="36"/>
      <point x="795" y="37" type="curve" smooth="yes"/>
      <point x="796" y="68"/>
      <point x="812" y="96"/>
      <point x="849" y="96" type="curve" smooth="yes"/>
      <point x="876" y="96"/>
      <point x="894" y="76"/>
    </contour>
    <contour>
      <point x="559" y="47" type="curve" smooth="yes"/>
      <point x="559" y="13"/>
      <point x="536" y="-14"/>
      <point x="505" y="-14" type="curve" smooth="yes"/>
      <point x="477" y="-14"/>
      <point x="460" y="7"/>
      <point x="460" y="35" type="curve" smooth="yes"/>
      <point x="460" y="66"/>
      <point x="480" y="96"/>
      <point x="514" y="96" type="curve" smooth="yes"/>
      <point x="541" y="96"/>
      <point x="559" y="76"/>
    </contour>
    <contour>
      <point x="223" y="47" type="curve" smooth="yes"/>
      <point x="223" y="14"/>
      <point x="201" y="-14"/>
      <point x="169" y="-14" type="curve" smooth="yes"/>
      <point x="141" y="-14"/>
      <point x="125" y="7"/>
      <point x="125" y="35" type="curve" smooth="yes"/>
      <point x="125" y="66"/>
      <point x="145" y="96"/>
      <point x="179" y="96" type="curve" smooth="yes"/>
      <point x="206" y="96"/>
      <point x="223" y="75"/>
    </contour>
  </outline>
</glyph>
<glyph name="minus" format="1">
  <advance width="679"/>
  <unicode hex="2212"/>
  <outline>
    <contour>
      <point x="604" y="317" type="line" smooth="yes"/>
      <point x="604" y="308"/>
      <point x="597" y="307"/>
      <point x="589" y="306" type="curve" smooth="yes"/>
      <point x="79" y="306" type="line" smooth="yes"/>
      <point x="73" y="309"/>
      <point x="69" y="310"/>
      <point x="69" y="323" type="curve"/>
      <point x="69" y="322"/>
      <point x="69" y="346"/>
      <point x="69" y="346" type="curve" smooth="yes"/>
      <point x="71" y="354"/>
      <point x="78" y="361"/>
      <point x="86" y="363" type="curve" smooth="yes"/>
      <point x="588" y="363" type="line" smooth="yes"/>
      <point x="601" y="361"/>
      <point x="603" y="356"/>
      <point x="604" y="351" type="curve" smooth="yes"/>
    </contour>
  </outline>
</glyph>
